<svg width="327" height="219" viewBox="0 0 327 219" fill="none" xmlns="http://www.w3.org/2000/svg">
<path d="M88.8402 75.686H38.9505C37.8857 75.686 37.0225 74.8213 37.0225 73.7547C37.0225 72.6882 37.8857 71.8234 38.9505 71.8234H88.8402C89.905 71.8234 90.7682 72.6882 90.7682 73.7547C90.7682 74.8213 89.905 75.686 88.8402 75.686Z" fill="#F4B0A7"/>
<path d="M180.772 24.0503H148.269C147.179 24.0503 146.295 23.165 146.295 22.0735C146.295 20.9817 147.179 20.0964 148.269 20.0964H180.772C181.862 20.0964 182.745 20.9817 182.745 22.0735C182.745 23.165 181.862 24.0503 180.772 24.0503Z" fill="#FFD4CD"/>
<path d="M61.1665 101.172H55.431C53.9241 101.172 52.702 99.9486 52.702 98.4387V93.0457C52.702 91.5363 53.9241 90.3121 55.431 90.3121H61.1665C62.6738 90.3121 63.895 91.5363 63.895 93.0457V98.4387C63.895 99.9486 62.6738 101.172 61.1665 101.172Z" fill="#407FFE"/>
<path d="M227.996 196.936H224.867C224.045 196.936 223.378 196.269 223.378 195.445V192.503C223.378 191.679 224.045 191.011 224.867 191.011H227.996C228.819 191.011 229.485 191.679 229.485 192.503V195.445C229.485 196.269 228.819 196.936 227.996 196.936Z" fill="#F4B0A7"/>
<path d="M284.117 71.2842H280.988C280.166 71.2842 279.499 70.6168 279.499 69.7927V66.8507C279.499 66.027 280.166 65.3592 280.988 65.3592H284.117C284.94 65.3592 285.606 66.027 285.606 66.8507V69.7927C285.606 70.6168 284.94 71.2842 284.117 71.2842Z" fill="#407FFE"/>
<path d="M65.3203 162.199L49.5201 170.399L54.0719 172.607L48.4192 179.377L52.8302 182.994L58.2898 175.725L61.9505 179.656L65.3203 162.199Z" fill="#FEFEF4"/>
<path d="M120.337 196.312H101.876C100.509 196.312 99.4004 195.202 99.4004 193.833C99.4004 192.463 100.509 191.353 101.876 191.353H120.337C121.704 191.353 122.812 192.463 122.812 193.833C122.812 195.202 121.704 196.312 120.337 196.312Z" fill="#FFD4CD"/>
<path d="M238.817 178.744H90.138C88.4158 178.744 87.0201 177.346 87.0201 175.621V51.5722C87.0201 49.8474 88.4158 48.4489 90.138 48.4489H238.817C240.539 48.4489 241.935 49.8474 241.935 51.5722V175.621C241.935 177.346 240.539 178.744 238.817 178.744Z" fill="#FCE7E4"/>
<path d="M87.0199 64.1274H241.935" stroke="#FEFEF4" stroke-width="2.588" stroke-miterlimit="10"/>
<path d="M238.817 178.744H90.138C88.4158 178.744 87.0201 177.346 87.0201 175.621V51.5721C87.0201 49.8474 88.4158 48.4489 90.138 48.4489H238.817C240.539 48.4489 241.935 49.8474 241.935 51.5721V175.621C241.935 177.346 240.539 178.744 238.817 178.744Z" stroke="#FEFEF4" stroke-width="2.588" stroke-miterlimit="10"/>
<path d="M102.3 56.4481C102.3 57.6561 101.322 58.6357 100.116 58.6357C98.9103 58.6357 97.9324 57.6561 97.9324 56.4481C97.9324 55.2396 98.9103 54.2604 100.116 54.2604C101.322 54.2604 102.3 55.2396 102.3 56.4481Z" stroke="#FEFEF4" stroke-width="2.588" stroke-miterlimit="10"/>
<path d="M110.788 56.4481C110.788 57.6561 109.81 58.6357 108.604 58.6357C107.398 58.6357 106.42 57.6561 106.42 56.4481C106.42 55.2396 107.398 54.2604 108.604 54.2604C109.81 54.2604 110.788 55.2396 110.788 56.4481Z" stroke="#FEFEF4" stroke-width="2.588" stroke-miterlimit="10"/>
<path d="M119.276 56.4481C119.276 57.6561 118.298 58.6357 117.092 58.6357C115.886 58.6357 114.908 57.6561 114.908 56.4481C114.908 55.2396 115.886 54.2604 117.092 54.2604C118.298 54.2604 119.276 55.2396 119.276 56.4481Z" stroke="#FEFEF4" stroke-width="2.588" stroke-miterlimit="10"/>
<path d="M119.182 155.262H40.4603C37.9673 155.262 35.9464 153.237 35.9464 150.74V121.507C35.9464 119.01 37.9673 116.985 40.4603 116.985H119.182C121.675 116.985 123.696 119.01 123.696 121.507V150.74C123.696 153.237 121.675 155.262 119.182 155.262Z" fill="#FFD4CD"/>
<path d="M46.5883 124.092C46.5883 125.011 45.8445 125.757 44.9267 125.757C44.009 125.757 43.2651 125.011 43.2651 124.092C43.2651 123.173 44.009 122.427 44.9267 122.427C45.8445 122.427 46.5883 123.173 46.5883 124.092Z" stroke="#FEFEF4" stroke-width="1.96933" stroke-miterlimit="10"/>
<path d="M53.0456 124.092C53.0456 125.011 52.3018 125.757 51.384 125.757C50.4662 125.757 49.7224 125.011 49.7224 124.092C49.7224 123.173 50.4662 122.427 51.384 122.427C52.3018 122.427 53.0456 123.173 53.0456 124.092Z" stroke="#FEFEF4" stroke-width="1.96933" stroke-miterlimit="10"/>
<path d="M59.503 124.092C59.503 125.011 58.7592 125.757 57.8414 125.757C56.9236 125.757 56.1798 125.011 56.1798 124.092C56.1798 123.173 56.9236 122.427 57.8414 122.427C58.7592 122.427 59.503 123.173 59.503 124.092Z" stroke="#FEFEF4" stroke-width="1.96933" stroke-miterlimit="10"/>
<path d="M35.9464 130.393H123.696" stroke="#FEFEF4" stroke-width="1.96933" stroke-miterlimit="10"/>
<path d="M260.657 68.3989H225.342C222.395 68.3989 220.006 66.0055 220.006 63.0531V34.5169C220.006 31.5645 222.395 29.1711 225.342 29.1711H260.657C263.605 29.1711 265.994 31.5645 265.994 34.5169V63.0531C265.994 66.0055 263.605 68.3989 260.657 68.3989Z" fill="#FFD4CD"/>
<path d="M240.098 39.1295C236.709 39.1295 233.951 41.8915 233.951 45.2864C233.951 48.6813 236.709 51.4433 240.098 51.4433C243.487 51.4433 246.244 48.6813 246.244 45.2864C246.244 41.8915 243.487 39.1295 240.098 39.1295ZM240.098 53.2471C235.715 53.2471 232.151 49.6757 232.151 45.2864C232.151 40.897 235.715 37.3257 240.098 37.3257C244.48 37.3257 248.045 40.897 248.045 45.2864C248.045 49.6757 244.48 53.2471 240.098 53.2471Z" fill="#FEFEF4"/>
<path d="M246.781 53.2739L244.435 50.9238L245.708 49.6484L248.054 51.9986L246.781 53.2739Z" fill="#FEFEF4"/>
<path d="M249.261 51.6621L253.904 56.3131C254.396 56.8066 254.396 57.6063 253.904 58.0994L252.871 59.1341C252.379 59.6272 251.58 59.6272 251.088 59.1341L246.445 54.4827C245.952 53.9896 245.952 53.1903 246.445 52.6968L247.478 51.6621C247.97 51.169 248.769 51.169 249.261 51.6621Z" fill="#FEFEF4"/>
<path d="M73.5405 56.1006H53.2438C49.8413 56.1006 47.0823 53.3368 47.0823 49.9284V32.6867C47.0823 29.2778 49.8413 26.5141 53.2438 26.5141H73.5405C76.9435 26.5141 79.7021 29.2778 79.7021 32.6867V49.9284C79.7021 53.3368 76.9435 56.1006 73.5405 56.1006Z" fill="#407FFE"/>
<path d="M63.3922 35.9172C60.727 35.9172 58.5587 38.0892 58.5587 40.759C58.5587 43.4289 60.727 45.6009 63.3922 45.6009C66.0575 45.6009 68.2257 43.4289 68.2257 40.759C68.2257 38.0892 66.0575 35.9172 63.3922 35.9172ZM63.3922 47.6812C59.582 47.6812 56.4821 44.5758 56.4821 40.759C56.4821 36.9423 59.582 33.8369 63.3922 33.8369C67.2024 33.8369 70.3024 36.9423 70.3024 40.759C70.3024 44.5758 67.2024 47.6812 63.3922 47.6812Z" fill="#FEFEF4"/>
<path d="M67.4655 35.9174L59.5416 45.6011" stroke="#FEFEF4" stroke-width="6.02933" stroke-miterlimit="10"/>
<path d="M290.607 160.187H217.078C213.937 160.187 211.391 157.636 211.391 154.489V99.5277C211.391 96.3809 213.937 93.8298 217.078 93.8298H290.607C293.748 93.8298 296.295 96.3809 296.295 99.5277V154.489C296.295 157.636 293.748 160.187 290.607 160.187Z" fill="#407FFE"/>
<path d="M243.333 131.77H245.266V134.5H243.333V138.191H239.946V134.5H232.95L232.798 132.367L239.911 121.129H243.333V131.77ZM236.173 131.77H239.946V125.746L239.723 126.133L236.173 131.77ZM258.579 131.137C258.579 133.496 258.09 135.301 257.114 136.551C256.137 137.801 254.708 138.426 252.825 138.426C250.965 138.426 249.544 137.812 248.559 136.586C247.575 135.359 247.071 133.602 247.048 131.312V128.172C247.048 125.789 247.54 123.98 248.524 122.746C249.516 121.512 250.942 120.895 252.801 120.895C254.661 120.895 256.083 121.508 257.067 122.734C258.051 123.953 258.555 125.707 258.579 127.996V131.137ZM255.192 127.691C255.192 126.277 254.997 125.25 254.606 124.609C254.223 123.961 253.622 123.637 252.801 123.637C252.005 123.637 251.415 123.945 251.032 124.562C250.657 125.172 250.458 126.129 250.434 127.434V131.582C250.434 132.973 250.622 134.008 250.997 134.688C251.38 135.359 251.989 135.695 252.825 135.695C253.653 135.695 254.251 135.371 254.618 134.723C254.985 134.074 255.176 133.082 255.192 131.746V127.691ZM270.895 131.77H272.829V134.5H270.895V138.191H267.508V134.5H260.512L260.36 132.367L267.473 121.129H270.895V131.77ZM263.735 131.77H267.508V125.746L267.286 126.133L263.735 131.77Z" fill="#FEFEF4"/>
<path d="M221.787 100.094C221.787 100.985 221.066 101.707 220.177 101.707C219.289 101.707 218.568 100.985 218.568 100.094C218.568 99.204 219.289 98.4824 220.177 98.4824C221.066 98.4824 221.787 99.204 221.787 100.094Z" stroke="#FEFEF4" stroke-width="1.90667" stroke-miterlimit="10"/>
<path d="M228.041 100.094C228.041 100.985 227.321 101.707 226.432 101.707C225.543 101.707 224.823 100.985 224.823 100.094C224.823 99.204 225.543 98.4824 226.432 98.4824C227.321 98.4824 228.041 99.204 228.041 100.094Z" stroke="#FEFEF4" stroke-width="1.90667" stroke-miterlimit="10"/>
<path d="M234.296 100.094C234.296 100.985 233.576 101.707 232.687 101.707C231.798 101.707 231.077 100.985 231.077 100.094C231.077 99.204 231.798 98.4824 232.687 98.4824C233.576 98.4824 234.296 99.204 234.296 100.094Z" stroke="#FEFEF4" stroke-width="1.90667" stroke-miterlimit="10"/>
<path d="M211.391 106.818H296.295" stroke="#FEFEF4" stroke-width="1.90667" stroke-miterlimit="10"/>
<path d="M172.573 132.414L172.249 128.032L144.979 129.375V133.604C144.979 133.604 138.846 139.449 136.426 178.338H185.513C185.513 178.338 190.898 143.92 172.573 132.414Z" fill="#407FFE"/>
<path d="M144.979 133.604L172.573 132.413" stroke="black" stroke-width="2.06933" stroke-miterlimit="10"/>
<path d="M150.617 151.534L156.269 153.84L159.295 178.338" stroke="black" stroke-width="2.06933" stroke-miterlimit="10"/>
<path d="M115.167 123.943L122.7 99.0301L139.271 105.253L131.321 129.111C129.692 134.039 124.07 136.364 119.445 134.022C115.758 132.155 113.951 127.898 115.167 123.943Z" fill="#F26E5A"/>
<path d="M126.788 85.7256C128.28 80.8694 133.485 78.2104 138.285 79.8526C142.952 81.4494 145.464 86.5149 143.914 91.2052L139.271 105.252L122.7 99.03L126.788 85.7256Z" fill="#FEFEF4"/>
<path d="M127.961 122.074L109.035 86.1254C109.035 86.1254 109.467 79.63 98.6955 79.2421L98.6981 79.2517C98.5516 79.2447 98.4056 79.2316 98.2586 79.2316H94.6582C93.9893 79.2316 93.3807 79.7029 93.2887 80.3668C93.1823 81.1346 93.7194 81.7958 94.4406 81.8858L98.0725 82.4003L93.1322 83.721L92.2096 84.0621L85.4821 79.6094C84.9462 79.2264 84.1968 79.4029 83.8868 79.9846C83.6435 80.441 83.7529 81.0057 84.1497 81.3372C84.5643 81.6836 85.2331 82.2583 85.9612 82.8886L84.4762 81.998C83.9112 81.6591 83.1783 81.895 82.9158 82.4994C82.7096 82.9742 82.8635 83.528 83.2855 83.8267C83.6483 84.0835 84.1152 84.4128 84.6114 84.7622L84.0952 84.5605C83.5292 84.3395 82.8591 84.4993 82.5142 84.9994C82.0447 85.6803 82.3263 86.6049 83.0719 86.9176L90.4233 89.9998C91.6925 90.5322 92.905 90.8641 94.3979 90.5095L100.951 88.9625L115.614 130.077L127.961 122.074Z" fill="#F26E5A"/>
<path d="M120.193 107.32L123.696 113.972" stroke="#DB5749" stroke-width="2" stroke-miterlimit="10"/>
<path d="M141.522 79.4567L134.487 79.9839C134.487 79.9839 124.299 93.8255 144.979 129.375L172.249 128.032L174.304 89.7305L170.938 78.8571H158.719L141.522 79.4567Z" fill="#FEFEF4"/>
<path d="M133.536 103.099C133.536 103.099 131.507 98.8233 132.811 89.3523" stroke="#FCE7E4" stroke-width="2.06933" stroke-miterlimit="10"/>
<path d="M196.838 118.941L185.512 95.5128L170.115 104.252L181.688 126.573C184.065 131.186 189.98 132.603 194.183 129.566C197.534 127.145 198.655 122.657 196.838 118.941Z" fill="#F26E5A"/>
<path d="M179.4 83.0113C177.169 78.4481 171.614 76.6364 167.129 79.0093C162.768 81.3167 161.077 86.7128 163.339 91.1026L170.115 104.251L185.513 95.5129L179.4 83.0113Z" fill="#FEFEF4"/>
<path d="M170.115 104.252L164.52 93.3956" stroke="#FCE7E4" stroke-width="2.06933" stroke-miterlimit="10"/>
<path d="M220.478 78.8601C220.133 78.3595 219.463 78.1997 218.897 78.4211L215.607 79.7069L218.697 77.0882C219.209 76.6545 219.353 75.8884 218.966 75.3398C218.522 74.7113 217.672 74.6157 217.107 75.0717L214.232 77.3908L216.682 74.1811C217.089 73.6474 217.066 72.8683 216.571 72.4153C216.004 71.8969 215.153 71.9851 214.698 72.552L209.859 77.5817L204.919 76.2605L208.551 75.7465C209.272 75.6565 209.809 74.9948 209.703 74.2274C209.611 73.5636 209.003 73.0919 208.333 73.0919H204.733C202.607 73.0919 200.531 73.8361 198.957 75.2507C198.93 75.2713 198.906 75.2848 198.879 75.3062C196.67 77.0519 197.473 80.6285 197.473 80.6285L183.909 119.097L197.352 125.07L205.102 83.7596L210.052 83.7687C210.358 83.7976 210.667 83.7958 210.974 83.7705H211.011L211.009 83.7683C211.54 83.7207 212.067 83.5949 212.568 83.3844L219.92 80.7783C220.666 80.4651 220.947 79.541 220.478 78.8601Z" fill="#F26E5A"/>
<path d="M189.18 103.099L186.25 113.343" stroke="#DB5749" stroke-width="2" stroke-miterlimit="10"/>
<path d="M140.975 47.7233C140.127 48.3055 134.442 49.7861 134.329 50.819C134.329 50.819 136.199 58.1434 134.284 59.5104C129.104 63.2058 127.447 70.4507 127.447 70.4507C127.447 70.4507 141.109 80.6991 177.43 69.9383C177.43 69.9383 177.865 65.58 171.259 62.4157C169.373 61.5125 167.697 60.1516 166.638 58.3032C165.817 56.8716 165.693 56.2636 165.475 54.9791C164.867 51.3873 154.972 38.1043 140.975 47.7233Z" fill="black"/>
<path d="M141.511 58.7011C141.678 61.105 139.868 63.1892 137.468 63.3565C135.069 63.5238 132.988 61.7104 132.821 59.3069C132.654 56.903 134.464 54.8188 136.864 54.6515C139.263 54.4843 141.344 56.2977 141.511 58.7011Z" fill="#DB5749"/>
<path d="M143.479 69.3888L144.082 78.8781C144.287 82.2106 145.646 84.4808 148.919 84.2528C151.713 84.058 155.037 81.8157 155.191 79.0144L153.526 64.1272L143.479 69.3888Z" fill="#F26E5A"/>
<path d="M141.522 79.4564L158.719 78.8567C158.719 78.8567 158.301 87.3267 148.08 86.5335C140.975 85.9819 141.522 79.4564 141.522 79.4564Z" fill="#F26E5A"/>
<path d="M143.975 77.2056L154.967 66.4409L143.398 68.4172L143.975 77.2056Z" fill="#DB5749"/>
<path d="M146.362 70.9223C140.765 70.9389 136.144 66.5246 135.977 61.9466L135.647 51.1435C135.437 45.4059 139.809 40.5361 145.526 40.1378C151.38 39.7298 157.481 44.0808 157.888 49.9442L158.059 58.6356C158.191 65.3576 153.057 70.4559 146.362 70.9223Z" fill="#F26E5A"/>
<path d="M141.846 58.1438L141.522 60.8263L142.906 60.8774" stroke="black" stroke-width="1.65067" stroke-miterlimit="10" stroke-linecap="round" stroke-linejoin="round"/>
<path d="M147.374 51.5955C147.374 51.5955 144.283 51.3413 144.251 52.6022C144.251 52.6022 144.254 53.4556 146.951 53.6247C149.649 53.7941 150.35 53.5963 150.597 52.7944C150.843 51.9925 148.824 51.6034 147.374 51.5955Z" fill="black"/>
<path d="M138.41 53.437C138.41 53.437 140.753 53.2478 140.973 54.3816C140.973 54.3816 141.104 55.1486 139.053 55.2661C137.002 55.384 136.367 55.1289 136.328 54.4799C136.282 53.7069 137.295 53.4256 138.41 53.437Z" fill="black"/>
<path d="M139.77 57.1202C139.788 57.6674 139.36 58.1256 138.813 58.1435C138.267 58.1614 137.81 57.7321 137.792 57.1848C137.774 56.6376 138.202 56.1794 138.749 56.1615C139.295 56.144 139.752 56.5729 139.77 57.1202Z" fill="black"/>
<path d="M148.079 56.8477C148.097 57.3945 147.668 57.8531 147.122 57.871C146.576 57.8889 146.118 57.4596 146.1 56.9124C146.082 56.3656 146.511 55.907 147.057 55.8891C147.603 55.8712 148.061 56.3005 148.079 56.8477Z" fill="black"/>
<path d="M145.185 62.741C145.185 62.741 143.722 62.0732 141.956 63.5996" stroke="black" stroke-width="1.65067" stroke-miterlimit="10" stroke-linecap="round" stroke-linejoin="round"/>
<path d="M148.99 38.2804C147.595 38.2061 146.188 38.3594 144.838 38.7197C141.486 39.6138 135.466 42.1006 134.435 48.5497C134.091 50.2496 134.329 50.8191 134.329 50.8191C134.329 50.8191 145.571 51.2611 152.218 48.1178C153.175 52.1748 154.058 54.6848 158.059 58.6353L161.61 53.2876L165.609 56.8799C165.635 57.0162 165.629 39.1661 148.99 38.2804Z" fill="black"/>
<path d="M163.891 58.7446C164.058 61.1485 162.248 63.2327 159.849 63.3999C157.449 63.5672 155.368 61.7543 155.201 59.3504C155.034 56.9465 156.844 54.8623 159.244 54.6954C161.644 54.5277 163.724 56.3411 163.891 58.7446Z" fill="#F26E5A"/>
<path d="M157.884 60.2944C157.884 60.2944 157.665 57.1389 160.711 57.4258" stroke="black" stroke-width="1.65067" stroke-miterlimit="10" stroke-linecap="round" stroke-linejoin="round"/>
</svg>
