<svg width="36" height="41" viewBox="0 0 36 41" fill="none" xmlns="http://www.w3.org/2000/svg">
<path d="M3.05843 8.40463L15.0584 1.65463C16.8849 0.627236 19.1151 0.627234 20.9416 1.65463L32.9416 8.40463C34.8308 9.46734 36 11.4664 36 13.6341V26.8659C36 29.0336 34.8308 31.0327 32.9416 32.0954L20.9416 38.8454C19.1151 39.8728 16.8849 39.8728 15.0584 38.8454L3.05843 32.0954C1.16917 31.0327 0 29.0336 0 26.8659V13.6341C0 11.4664 1.16917 9.46734 3.05843 8.40463Z" fill="#E8CE90"/>
<g clip-path="url(#clip0_2975_60394)">
<path d="M26.5995 13.6925L15.0837 25.2075C15.0063 25.2852 14.9142 25.3469 14.8129 25.389C14.7116 25.4311 14.603 25.4527 14.4933 25.4527C14.3836 25.4527 14.2749 25.4311 14.1736 25.389C14.0723 25.3469 13.9803 25.2852 13.9028 25.2075L9.44951 20.75C9.37209 20.6723 9.28008 20.6106 9.17876 20.5685C9.07744 20.5264 8.96881 20.5048 8.8591 20.5048C8.74938 20.5048 8.64075 20.5264 8.53943 20.5685C8.43811 20.6106 8.3461 20.6723 8.26868 20.75C8.19095 20.8274 8.12927 20.9194 8.08719 21.0208C8.0451 21.1221 8.02344 21.2307 8.02344 21.3404C8.02344 21.4501 8.0451 21.5588 8.08719 21.6601C8.12927 21.7614 8.19095 21.8534 8.26868 21.9308L12.7237 26.385C13.1936 26.8541 13.8305 27.1175 14.4945 27.1175C15.1585 27.1175 15.7954 26.8541 16.2653 26.385L27.7803 14.8725C27.858 14.7951 27.9195 14.7031 27.9615 14.6019C28.0035 14.5007 28.0252 14.3921 28.0252 14.2825C28.0252 14.1729 28.0035 14.0644 27.9615 13.9631C27.9195 13.8619 27.858 13.7699 27.7803 13.6925C27.7029 13.6148 27.6109 13.5531 27.5096 13.511C27.4083 13.4689 27.2996 13.4473 27.1899 13.4473C27.0802 13.4473 26.9716 13.4689 26.8703 13.511C26.7689 13.5531 26.6769 13.6148 26.5995 13.6925Z" fill="#FCFCFE"/>
</g>
<defs>
<clipPath id="clip0_2975_60394">
<rect width="20" height="20" fill="white" transform="translate(8 10)"/>
</clipPath>
</defs>
</svg>
