<svg width="36" height="41" viewBox="0 0 36 41" fill="none" xmlns="http://www.w3.org/2000/svg">
<path d="M3.05843 8.40463L15.0584 1.65463C16.8849 0.627236 19.1151 0.627234 20.9416 1.65463L32.9416 8.40463C34.8308 9.46734 36 11.4664 36 13.6341V26.8659C36 29.0336 34.8308 31.0327 32.9416 32.0954L20.9416 38.8454C19.1151 39.8728 16.8849 39.8728 15.0584 38.8454L3.05843 32.0954C1.16917 31.0327 0 29.0336 0 26.8659V13.6341C0 11.4664 1.16917 9.46734 3.05843 8.40463Z" fill="#C199AC"/>
<g clip-path="url(#clip0)">
<path d="M20.5758 23.3334C26.0508 23.3034 28 20.4034 28 17.9167C27.9995 17.2501 27.7706 16.6037 27.3515 16.0853C26.9324 15.5669 26.3484 15.2077 25.6967 15.0675C25.81 14.745 25.9083 14.4492 25.9742 14.225C26.1196 13.7375 26.1482 13.2225 26.0576 12.7219C25.967 12.2212 25.7597 11.749 25.4525 11.3434C25.1428 10.9249 24.739 10.5853 24.2737 10.3519C23.8084 10.1185 23.2947 9.99799 22.7742 10H13.2258C12.7053 9.99799 12.1916 10.1185 11.7263 10.3519C11.261 10.5853 10.8572 10.9249 10.5475 11.3434C10.2403 11.749 10.033 12.2212 9.94241 12.7219C9.85178 13.2225 9.88036 13.7375 10.0258 14.225C10.0917 14.4492 10.1925 14.745 10.3033 15.0675C9.65161 15.2077 9.06758 15.5669 8.64848 16.0853C8.22939 16.6037 8.00052 17.2501 8 17.9167C8 20.4034 9.94917 23.3034 15.4242 23.3334C15.4728 23.5863 15.4982 23.8432 15.5 24.1009V26.6667C15.5143 26.8893 15.481 27.1124 15.4023 27.3211C15.3236 27.5298 15.2014 27.7193 15.0436 27.877C14.8859 28.0347 14.6964 28.157 14.4877 28.2357C14.279 28.3144 14.0559 28.3477 13.8333 28.3334H13C12.779 28.3334 12.567 28.4212 12.4107 28.5774C12.2545 28.7337 12.1667 28.9457 12.1667 29.1667C12.1667 29.3877 12.2545 29.5997 12.4107 29.7559C12.567 29.9122 12.779 30 13 30H23C23.221 30 23.433 29.9122 23.5893 29.7559C23.7455 29.5997 23.8333 29.3877 23.8333 29.1667C23.8333 28.9457 23.7455 28.7337 23.5893 28.5774C23.433 28.4212 23.221 28.3334 23 28.3334H22.1733C21.9503 28.3484 21.7266 28.3156 21.5172 28.2373C21.3078 28.159 21.1176 28.0368 20.9592 27.879C20.8008 27.7213 20.6779 27.5315 20.5987 27.3224C20.5195 27.1134 20.4859 26.8898 20.5 26.6667V24.1C20.5018 23.8427 20.5272 23.5861 20.5758 23.3334ZM25.0833 16.6667C25.4149 16.6667 25.7328 16.7984 25.9672 17.0328C26.2016 17.2672 26.3333 17.5852 26.3333 17.9167C26.3333 19.6117 24.9925 21.4167 21.3033 21.6417C21.4878 21.3899 21.7009 21.1603 21.9383 20.9575C23.2667 19.7609 24.3254 18.2954 25.0442 16.6584C25.0575 16.6592 25.0692 16.6667 25.0833 16.6667ZM9.66667 17.9167C9.66667 17.5852 9.79836 17.2672 10.0328 17.0328C10.2672 16.7984 10.5851 16.6667 10.9167 16.6667C10.9308 16.6667 10.9425 16.6592 10.9558 16.6584C11.6746 18.2954 12.7333 19.7609 14.0617 20.9575C14.2991 21.1603 14.5122 21.3899 14.6967 21.6417C11.0075 21.4167 9.66667 19.6117 9.66667 17.9167ZM16.7608 28.3334C17.0363 27.8216 17.1761 27.2478 17.1667 26.6667V24.1009C17.1696 23.2624 16.9898 22.4334 16.64 21.6714C16.2902 20.9094 15.7786 20.2327 15.1408 19.6884C13.4463 18.0688 12.2297 16.0145 11.6242 13.75C11.553 13.511 11.5393 13.2586 11.5842 13.0132C11.6291 12.7679 11.7313 12.5367 11.8825 12.3384C12.038 12.1288 12.2406 11.9588 12.474 11.8421C12.7073 11.7254 12.9649 11.6653 13.2258 11.6667H22.7742C23.0354 11.6657 23.2931 11.7263 23.5265 11.8436C23.7599 11.9609 23.9624 12.1315 24.1175 12.3417C24.2687 12.54 24.3709 12.7713 24.4158 13.0166C24.4607 13.2619 24.447 13.5143 24.3758 13.7534C23.7697 16.0166 22.5532 18.0697 20.8592 19.6884C20.2214 20.2325 19.7099 20.9091 19.36 21.6709C19.0102 22.4328 18.8304 23.2617 18.8333 24.1V26.6667C18.8239 27.2478 18.9637 27.8216 19.2392 28.3334H16.7608Z" fill="#FCFCFE"/>
</g>
<defs>
<clipPath id="clip0">
<rect width="20" height="20" fill="white" transform="translate(8 10)"/>
</clipPath>
</defs>
</svg>
