<svg width="24" height="24" viewBox="0 0 24 24" fill="none" xmlns="http://www.w3.org/2000/svg">
<path d="M10.6 12.7069C10.4125 12.5194 10.3072 12.2651 10.3072 11.9999C10.3072 11.7348 10.4125 11.4804 10.6 11.2929L15.185 6.70692C15.3672 6.51832 15.468 6.26571 15.4657 6.00352C15.4634 5.74132 15.3582 5.49051 15.1728 5.3051C14.9874 5.11969 14.7366 5.01452 14.4744 5.01224C14.2122 5.00997 13.9596 5.11076 13.771 5.29292L9.189 9.87892C8.62659 10.4415 8.31064 11.2044 8.31064 11.9999C8.31064 12.7954 8.62659 13.5583 9.189 14.1209L13.775 18.7069C13.9636 18.8891 14.2162 18.9899 14.4784 18.9876C14.7406 18.9853 14.9914 18.8801 15.1768 18.6947C15.3622 18.5093 15.4674 18.2585 15.4697 17.9963C15.472 17.7341 15.3712 17.4815 15.189 17.2929L10.6 12.7069Z" fill="#F7931A"/>
</svg>
