<svg width="36" height="41" viewBox="0 0 36 41" fill="none" xmlns="http://www.w3.org/2000/svg">
<path d="M3.05843 8.40463L15.0584 1.65463C16.8849 0.627236 19.1151 0.627234 20.9416 1.65463L32.9416 8.40463C34.8308 9.46734 36 11.4664 36 13.6341V26.8659C36 29.0336 34.8308 31.0327 32.9416 32.0954L20.9416 38.8454C19.1151 39.8728 16.8849 39.8728 15.0584 38.8454L3.05843 32.0954C1.16917 31.0327 0 29.0336 0 26.8659V13.6341C0 11.4664 1.16917 9.46734 3.05843 8.40463Z" fill="#7DB2AC"/>
<g clip-path="url(#clip0)">
<path d="M27.0833 17.4624C26.8074 17.3226 26.4979 17.2629 26.1898 17.29C25.8816 17.3171 25.5873 17.4299 25.34 17.6158L23.8125 18.7499C23.7079 17.7227 23.2262 16.7707 22.4604 16.078C21.6946 15.3853 20.6992 15.0012 19.6667 14.9999H19.5958L16.1608 11.5658C15.9294 11.3327 15.654 11.1479 15.3506 11.0222C15.0471 10.8965 14.7218 10.8322 14.3933 10.8333H8.83333C8.61232 10.8333 8.40036 10.9211 8.24408 11.0773C8.0878 11.2336 8 11.4456 8 11.6666C8 11.8876 8.0878 12.0996 8.24408 12.2559C8.40036 12.4121 8.61232 12.4999 8.83333 12.4999H14.3933C14.6142 12.5005 14.8259 12.5883 14.9825 12.7441L17.2383 14.9999H12.1667C11.062 15.0013 10.003 15.4407 9.22185 16.2218C8.44073 17.0029 8.00132 18.0619 8 19.1666L8 25.8333C8.00132 26.9379 8.44073 27.997 9.22185 28.7781C10.003 29.5592 11.062 29.9986 12.1667 29.9999H19.6667C20.6992 29.9986 21.6946 29.6145 22.4604 28.9219C23.2262 28.2292 23.7079 27.2772 23.8125 26.2499L25.3375 27.3866C25.5851 27.5723 25.8796 27.6854 26.1878 27.7132C26.4961 27.741 26.806 27.6824 27.0829 27.544C27.3597 27.4056 27.5925 27.1928 27.7553 26.9295C27.918 26.6662 28.0042 26.3628 28.0042 26.0533V18.9524C28.0052 18.6428 27.9195 18.3391 27.7568 18.0758C27.594 17.8124 27.3607 17.5999 27.0833 17.4624ZM22.1667 25.8333C22.1667 26.4963 21.9033 27.1322 21.4344 27.601C20.9656 28.0699 20.3297 28.3333 19.6667 28.3333H12.1667C11.5036 28.3333 10.8677 28.0699 10.3989 27.601C9.93006 27.1322 9.66667 26.4963 9.66667 25.8333V19.1666C9.66667 18.5036 9.93006 17.8677 10.3989 17.3988C10.8677 16.93 11.5036 16.6666 12.1667 16.6666H19.1925C19.2125 16.6666 19.2325 16.6666 19.2525 16.6666C19.2733 16.6666 19.2933 16.6666 19.3133 16.6666H19.6667C20.3297 16.6666 20.9656 16.93 21.4344 17.3988C21.9033 17.8677 22.1667 18.5036 22.1667 19.1666V25.8333ZM26.3333 26.0474L23.8333 24.1841V20.8158L26.3333 18.9524V26.0474Z" fill="#FCFCFE"/>
</g>
<defs>
<clipPath id="clip0">
<rect width="20" height="20" fill="white" transform="translate(8 10)"/>
</clipPath>
</defs>
</svg>
