<?xml version="1.0" encoding="UTF-8"?>
<svg width="20px" height="20px" viewBox="0 0 20 20" version="1.1" xmlns="http://www.w3.org/2000/svg" xmlns:xlink="http://www.w3.org/1999/xlink">
    <!-- Generator: Sketch 58 (84663) - https://sketch.com -->
    <title>Group</title>
    <desc>Created with Sketch.</desc>
    <g id="Page-1" stroke="none" stroke-width="1" fill="none" fill-rule="evenodd">
        <g id="Group" fill="#F7931A" fill-rule="nonzero">
            <path d="M14.7675,2.5 L13.59,0.973333 C13.3554,0.671505 13.0553,0.427014 12.7122,0.258378 C12.3692,0.0897429 11.9922,0.00138587 11.61,0 L8.38998,0 C8.00773,0.00138587 7.63081,0.0897429 7.28776,0.258378 C6.94471,0.427014 6.64454,0.671505 6.40998,0.973333 L5.23248,2.5 L14.7675,2.5 Z" id="Path"></path>
            <path d="M9.99999,15 C11.8409,15 13.3333,13.5076 13.3333,11.6667 C13.3333,9.82572 11.8409,8.33334 9.99999,8.33334 C8.15904,8.33334 6.66666,9.82572 6.66666,11.6667 C6.66666,13.5076 8.15904,15 9.99999,15 Z" id="Path"></path>
            <path d="M15.8333,4.16666 L4.16667,4.16666 C3.062,4.16799 2.00296,4.6074 1.22185,5.38851 C0.440735,6.16963 0.00132321,7.22867 0,8.33333 L0,15.8333 C0.00132321,16.938 0.440735,17.997 1.22185,18.7781 C2.00296,19.5593 3.062,19.9987 4.16667,20 L15.8333,20 C16.938,19.9987 17.997,19.5593 18.7782,18.7781 C19.5593,17.997 19.9987,16.938 20,15.8333 L20,8.33333 C19.9987,7.22867 19.5593,6.16963 18.7782,5.38851 C17.997,4.6074 16.938,4.16799 15.8333,4.16666 Z M9.99999678,16.6667 C9.01109,16.6667 8.04439,16.3734 7.22215,15.824 C6.3999,15.2746 5.75904,14.4937 5.3806,13.5801 C5.00216,12.6665 4.90315,11.6611 5.09607,10.6912 C5.289,9.72131 5.7652,8.83039 6.46447,8.13113 C7.16373,7.43187 8.05464,6.95566 9.02455,6.76274 C9.99445,6.56981 10.9998,6.66883 11.9134,7.04727 C12.827,7.42571 13.6079,8.06657 14.1573,8.88881 C14.7068,9.71106 14.9999968,10.6778 14.9999968,11.6667 C14.9987,12.9923 14.4715,14.2633 13.5341,15.2007 C12.5967,16.1381 11.3257,16.6653 9.99999678,16.6667 Z" id="Shape"></path>
        </g>
    </g>
</svg>