<svg width="20" height="20" viewBox="0 0 20 20" fill="none" xmlns="http://www.w3.org/2000/svg">
<path d="M2.49998 1.99998H1.99998V2.49998V7.49998V7.99998H2.49998H7.49998H7.99998V7.49998V2.49998V1.99998H7.49998H2.49998ZM2.49998 12H1.99998V12.5V17.5V18H2.49998H7.49998H7.99998V17.5V12.5V12H7.49998H2.49998ZM13 17V16.3333H15.3333V17H13ZM12 18V18.6666H11.3333V18H12ZM16.3333 18H17.5H18V17.5V15.8333V15.3333H17.5H16.3333V14.6666H18.6666V18.6666H16.3333V18ZM15.3333 13.6666H14.6666V13H15.3333V13.6666ZM16.3333 12V11.3333H18.6666V12H16.3333ZM13.6666 12H12.5H12V12.5V15.3333H11.3333V11.3333H13.6666V12ZM14.1666 4.66665H14.6666V4.16665V2.16665H15.3333V4.16665V4.66665H15.8333H17.8333V5.33331H15.8333H15.3333V5.83331V7.83331H14.6666V5.83331V5.33331H14.1666H12.1666V4.66665H14.1666ZM4.66665 4.66665H5.33331V5.33331H4.66665V4.66665ZM1.33331 1.33331H8.66665V8.66665H1.33331V1.33331ZM4.66665 14.6666H5.33331V15.3333H4.66665V14.6666ZM1.33331 11.3333H8.66665V18.6666H1.33331V11.3333Z" fill="#F7931A" stroke="#F7931A"/>
</svg>
