<?xml version="1.0" encoding="UTF-8"?>
<svg width="40px" height="40px" viewBox="0 0 40 40" version="1.1" xmlns="http://www.w3.org/2000/svg" xmlns:xlink="http://www.w3.org/1999/xlink">
    <!-- Generator: Sketch 58 (84663) - https://sketch.com -->
    <title>Group</title>
    <desc>Created with Sketch.</desc>
    <g id="Page-1" stroke="none" stroke-width="1" fill="none" fill-rule="evenodd">
        <g id="Group">
            <path d="M20,40 C31.0457,40 40,31.0457 40,20 C40,8.9543 31.0457,0 20,0 C8.9543,0 0,8.9543 0,20 C0,31.0457 8.9543,40 20,40 Z" id="Path" fill="#2D5ACD"></path>
            <path d="M26,15.6667 L23.9333,15.6667 C23.7786,14.9143 23.3692,14.2382 22.7741,13.7525 C22.1791,13.2667 21.4348,13.001 20.6666,13 L19.3333,13 C18.5652,13.001 17.8209,13.2667 17.2258,13.7525 C16.6308,14.2382 16.2214,14.9143 16.0666,15.6667 L14,15.6667 C13.8232,15.6667 13.6536,15.7369 13.5286,15.8619 C13.4036,15.987 13.3333,16.1565 13.3333,16.3333 C13.3333,16.5101 13.4036,16.6797 13.5286,16.8047 C13.6536,16.9298 13.8232,17 14,17 L14.6666,17 L14.6666,25.6667 C14.6677,26.5504 15.0192,27.3976 15.6441,28.0225 C16.269,28.6474 17.1162,28.9989 18,29 L22,29 C22.8837,28.9989 23.7309,28.6474 24.3558,28.0225 C24.9807,27.3976 25.3323,26.5504 25.3333,25.6667 L25.3333,17 L26,17 C26.1768,17 26.3464,16.9298 26.4714,16.8047 C26.5964,16.6797 26.6666,16.5101 26.6666,16.3333 C26.6666,16.1565 26.5964,15.987 26.4714,15.8619 C26.3464,15.7369 26.1768,15.6667 26,15.6667 Z M19.3333,24.3333 C19.3333,24.5101 19.2631,24.6797 19.1381,24.8047 C19.013,24.9298 18.8435,25 18.6666,25 C18.4898,25 18.3203,24.9298 18.1952,24.8047 C18.0702,24.6797 18,24.5101 18,24.3333 L18,20.3333 C18,20.1565 18.0702,19.987 18.1952,19.8619 C18.3203,19.7369 18.4898,19.6667 18.6666,19.6667 C18.8435,19.6667 19.013,19.7369 19.1381,19.8619 C19.2631,19.987 19.3333,20.1565 19.3333,20.3333 L19.3333,24.3333 Z M22,24.3333 C22,24.5101 21.9297,24.6797 21.8047,24.8047 C21.6797,24.9298 21.5101,25 21.3333,25 C21.1565,25 20.9869,24.9298 20.8619,24.8047 C20.7369,24.6797 20.6666,24.5101 20.6666,24.3333 L20.6666,20.3333 C20.6666,20.1565 20.7369,19.987 20.8619,19.8619 C20.9869,19.7369 21.1565,19.6667 21.3333,19.6667 C21.5101,19.6667 21.6797,19.7369 21.8047,19.8619 C21.9297,19.987 22,20.1565 22,20.3333 L22,24.3333 Z M17.4473,15.6667 C17.5857,15.277 17.8412,14.9397 18.1789,14.701 C18.5166,14.4623 18.9198,14.3338 19.3333,14.3333 L20.6666,14.3333 C21.0802,14.3338 21.4834,14.4623 21.8211,14.701 C22.1587,14.9397 22.4143,15.277 22.5526,15.6667 L17.4473,15.6667 Z" id="Shape" fill="#FCFCFE" fill-rule="nonzero"></path>
        </g>
    </g>
</svg>