<svg width="36" height="41" viewBox="0 0 36 41" fill="none" xmlns="http://www.w3.org/2000/svg">
<path d="M3.05843 8.40463L15.0584 1.65463C16.8849 0.627236 19.1151 0.627234 20.9416 1.65463L32.9416 8.40463C34.8308 9.46734 36 11.4664 36 13.6341V26.8659C36 29.0336 34.8308 31.0327 32.9416 32.0954L20.9416 38.8454C19.1151 39.8728 16.8849 39.8728 15.0584 38.8454L3.05843 32.0954C1.16917 31.0327 0 29.0336 0 26.8659V13.6341C0 11.4664 1.16917 9.46734 3.05843 8.40463Z" fill="#85C6DA"/>
<path d="M13.8333 15H27.1667C27.3877 15 27.5996 14.9122 27.7559 14.756C27.9122 14.5997 28 14.3877 28 14.1667C28 13.9457 27.9122 13.7337 27.7559 13.5775C27.5996 13.4212 27.3877 13.3334 27.1667 13.3334H13.8333C13.6123 13.3334 13.4004 13.4212 13.2441 13.5775C13.0878 13.7337 13 13.9457 13 14.1667C13 14.3877 13.0878 14.5997 13.2441 14.756C13.4004 14.9122 13.6123 15 13.8333 15Z" fill="#FCFCFE"/>
<path d="M27.1667 19.1666H13.8333C13.6123 19.1666 13.4004 19.2544 13.2441 19.4107C13.0878 19.567 13 19.7789 13 20C13 20.221 13.0878 20.4329 13.2441 20.5892C13.4004 20.7455 13.6123 20.8333 13.8333 20.8333H27.1667C27.3877 20.8333 27.5996 20.7455 27.7559 20.5892C27.9122 20.4329 28 20.221 28 20C28 19.7789 27.9122 19.567 27.7559 19.4107C27.5996 19.2544 27.3877 19.1666 27.1667 19.1666Z" fill="#FCFCFE"/>
<path d="M27.1667 25H13.8333C13.6123 25 13.4004 25.0878 13.2441 25.2441C13.0878 25.4004 13 25.6123 13 25.8333C13 26.0543 13.0878 26.2663 13.2441 26.4226C13.4004 26.5789 13.6123 26.6667 13.8333 26.6667H27.1667C27.3877 26.6667 27.5996 26.5789 27.7559 26.4226C27.9122 26.2663 28 26.0543 28 25.8333C28 25.6123 27.9122 25.4004 27.7559 25.2441C27.5996 25.0878 27.3877 25 27.1667 25Z" fill="#FCFCFE"/>
<path d="M9.66667 15.8333C10.5871 15.8333 11.3333 15.0871 11.3333 14.1667C11.3333 13.2462 10.5871 12.5 9.66667 12.5C8.74619 12.5 8 13.2462 8 14.1667C8 15.0871 8.74619 15.8333 9.66667 15.8333Z" fill="#FCFCFE"/>
<path d="M9.66667 21.6667C10.5871 21.6667 11.3333 20.9205 11.3333 20C11.3333 19.0796 10.5871 18.3334 9.66667 18.3334C8.74619 18.3334 8 19.0796 8 20C8 20.9205 8.74619 21.6667 9.66667 21.6667Z" fill="#FCFCFE"/>
<path d="M9.66667 27.5C10.5871 27.5 11.3333 26.7538 11.3333 25.8333C11.3333 24.9128 10.5871 24.1666 9.66667 24.1666C8.74619 24.1666 8 24.9128 8 25.8333C8 26.7538 8.74619 27.5 9.66667 27.5Z" fill="#FCFCFE"/>
</svg>
