<svg width="14" height="9" viewBox="0 0 14 9" fill="none" xmlns="http://www.w3.org/2000/svg">
<path d="M13.7064 1.20709C13.5189 1.01962 13.2646 0.914307 12.9994 0.914307C12.7343 0.914307 12.48 1.01962 12.2924 1.20709L7.70643 5.79309C7.5163 5.97558 7.26297 6.07748 6.99943 6.07748C6.73589 6.07748 6.48256 5.97558 6.29243 5.79309L1.70643 1.20709C1.51783 1.02493 1.26523 0.92414 1.00303 0.926419C0.740833 0.928697 0.49002 1.03387 0.304612 1.21927C0.119204 1.40468 0.014035 1.65549 0.0117566 1.91769C0.00947813 2.17989 0.110273 2.43249 0.292431 2.62109L4.87743 7.20709C5.15601 7.48572 5.48675 7.70675 5.85076 7.85754C6.21477 8.00834 6.60492 8.08595 6.99893 8.08595C7.39294 8.08595 7.78309 8.00834 8.1471 7.85754C8.51111 7.70675 8.84185 7.48572 9.12043 7.20709L13.7064 2.62109C13.8939 2.43357 13.9992 2.17926 13.9992 1.91409C13.9992 1.64893 13.8939 1.39462 13.7064 1.20709Z" fill="#F7931A"/>
</svg>
