<svg width="24" height="24" viewBox="0 0 24 24" fill="none" xmlns="http://www.w3.org/2000/svg">
<g clip-path="url(#clip0)">
<path d="M12 -5.72205e-06C14.3734 -5.72205e-06 16.6934 0.703783 18.6668 2.02236C20.6402 3.34094 22.1783 5.21508 23.0865 7.40779C23.9948 9.60051 24.2324 12.0133 23.7694 14.3411C23.3064 16.6688 22.1635 18.807 20.4853 20.4853C18.807 22.1635 16.6688 23.3064 14.3411 23.7694C12.0133 24.2324 9.60051 23.9948 7.40779 23.0865C5.21508 22.1783 3.34094 20.6402 2.02236 18.6668C0.703783 16.6934 -5.72205e-06 14.3734 -5.72205e-06 12C0.00343513 8.81845 1.26882 5.7682 3.51851 3.51851C5.7682 1.26882 8.81845 0.00343513 12 -5.72205e-06ZM12 22C13.9778 22 15.9112 21.4135 17.5557 20.3147C19.2002 19.2159 20.4819 17.6541 21.2388 15.8268C21.9957 13.9996 22.1937 11.9889 21.8078 10.0491C21.422 8.10928 20.4696 6.32745 19.0711 4.92893C17.6725 3.5304 15.8907 2.57799 13.9509 2.19214C12.0111 1.80629 10.0004 2.00432 8.17316 2.7612C6.3459 3.51807 4.78411 4.7998 3.6853 6.44429C2.58648 8.08878 1.99999 10.0222 1.99999 12C2.00291 14.6513 3.05741 17.1931 4.93214 19.0678C6.80688 20.9426 9.34872 21.9971 12 22Z" fill="#F7931A"/>
<path d="M12 9C12.1958 8.99963 12.3897 9.04195 12.5706 9.12455C12.7515 9.20714 12.9158 9.32838 13.0541 9.48129L17 13.8367L15.9459 15L12 10.6454L8.05412 15L7 13.8367L10.9459 9.48211C11.0841 9.32905 11.2484 9.20766 11.4293 9.12493C11.6102 9.04219 11.8042 8.99973 12 9Z" fill="#F7931A"/>
</g>
<defs>
<clipPath id="clip0">
<rect width="24" height="24" fill="white" transform="translate(24 24) rotate(-180)"/>
</clipPath>
</defs>
</svg>
