<svg width="16" height="16" viewBox="0 0 16 16" fill="none" xmlns="http://www.w3.org/2000/svg">
<g clip-path="url(#clip0)">
<path d="M15.3333 10.6666C15.1565 10.6666 14.987 10.7369 14.8619 10.8619C14.7369 10.9869 14.6667 11.1565 14.6667 11.3333V14C14.6667 14.1768 14.5964 14.3463 14.4714 14.4714C14.3464 14.5964 14.1768 14.6666 14 14.6666H2C1.82319 14.6666 1.65362 14.5964 1.5286 14.4714C1.40357 14.3463 1.33333 14.1768 1.33333 14V11.3333C1.33333 11.1565 1.2631 10.9869 1.13807 10.8619C1.01305 10.7369 0.843478 10.6666 0.666667 10.6666C0.489856 10.6666 0.320286 10.7369 0.195262 10.8619C0.0702379 10.9869 0 11.1565 0 11.3333L0 14C0 14.5304 0.210714 15.0391 0.585786 15.4142C0.960859 15.7892 1.46957 16 2 16H14C14.5304 16 15.0391 15.7892 15.4142 15.4142C15.7893 15.0391 16 14.5304 16 14V11.3333C16 11.1565 15.9298 10.9869 15.8047 10.8619C15.6797 10.7369 15.5101 10.6666 15.3333 10.6666Z" fill="#FCFCFE"/>
<path d="M3.52866 9.02533L6.58599 12.0833C6.96165 12.4571 7.47004 12.667 7.99999 12.667C8.52994 12.667 9.03833 12.4571 9.41399 12.0833L12.4713 9.026C12.535 8.9645 12.5858 8.89094 12.6207 8.8096C12.6557 8.72827 12.6741 8.64079 12.6748 8.55227C12.6756 8.46375 12.6587 8.37596 12.6252 8.29403C12.5917 8.2121 12.5422 8.13766 12.4796 8.07507C12.417 8.01247 12.3426 7.96297 12.2606 7.92945C12.1787 7.89593 12.0909 7.87906 12.0024 7.87983C11.9139 7.8806 11.8264 7.89899 11.7451 7.93393C11.6637 7.96887 11.5902 8.01966 11.5287 8.08333L8.66666 10.944V0.666667C8.66666 0.489856 8.59642 0.320286 8.4714 0.195262C8.34637 0.0702379 8.1768 0 7.99999 0C7.82318 0 7.65361 0.0702379 7.52859 0.195262C7.40356 0.320286 7.33333 0.489856 7.33333 0.666667V10.9447L4.47133 8.08267C4.40983 8.01899 4.33627 7.9682 4.25493 7.93327C4.17359 7.89833 4.08611 7.87994 3.99759 7.87917C3.90907 7.8784 3.82129 7.89526 3.73936 7.92878C3.65743 7.96231 3.58299 8.01181 3.5204 8.0744C3.4578 8.137 3.4083 8.21143 3.37478 8.29336C3.34126 8.37529 3.32439 8.46308 3.32516 8.5516C3.32593 8.64012 3.34432 8.7276 3.37926 8.80894C3.4142 8.89027 3.46499 8.96383 3.52866 9.02533Z" fill="#FCFCFE"/>
</g>
<defs>
<clipPath id="clip0">
<rect width="16" height="16" fill="white"/>
</clipPath>
</defs>
</svg>
