<svg width="36" height="41" viewBox="0 0 36 41" fill="none" xmlns="http://www.w3.org/2000/svg">
<path d="M3.05843 8.40463L15.0584 1.65463C16.8849 0.627236 19.1151 0.627234 20.9416 1.65463L32.9416 8.40463C34.8308 9.46734 36 11.4664 36 13.6341V26.8659C36 29.0336 34.8308 31.0327 32.9416 32.0954L20.9416 38.8454C19.1151 39.8728 16.8849 39.8728 15.0584 38.8454L3.05843 32.0954C1.16917 31.0327 0 29.0336 0 26.8659V13.6341C0 11.4664 1.16917 9.46734 3.05843 8.40463Z" fill="#85C6DA"/>
<g clip-path="url(#clip0)">
<path d="M18 15C17.7789 15 17.567 15.0878 17.4107 15.2441C17.2544 15.4004 17.1666 15.6123 17.1666 15.8333V20C17.1667 20.221 17.2545 20.4329 17.4108 20.5892L19.9108 23.0892C20.068 23.241 20.2785 23.325 20.497 23.3231C20.7155 23.3212 20.9245 23.2335 21.079 23.079C21.2335 22.9245 21.3211 22.7155 21.323 22.497C21.3249 22.2785 21.2409 22.068 21.0891 21.9108L18.8333 19.655V15.8333C18.8333 15.6123 18.7455 15.4004 18.5892 15.2441C18.4329 15.0878 18.221 15 18 15Z" fill="#FCFCFE"/>
<path d="M27.8434 18.4433C27.5573 16.6315 26.7785 14.9333 25.592 13.5345C24.4055 12.1356 22.8572 11.0901 21.1163 10.5122C19.3755 9.93427 17.5093 9.84631 15.7218 10.2579C13.9343 10.6695 12.2945 11.5648 10.9817 12.8458V10.8333C10.9817 10.6123 10.8939 10.4004 10.7376 10.2441C10.5814 10.0878 10.3694 10 10.1484 10C9.92737 10 9.7154 10.0878 9.55912 10.2441C9.40284 10.4004 9.31505 10.6123 9.31505 10.8333V14.1667C9.31505 14.6087 9.49064 15.0326 9.8032 15.3452C10.1158 15.6577 10.5397 15.8333 10.9817 15.8333H14.315C14.5361 15.8333 14.748 15.7455 14.9043 15.5893C15.0606 15.433 15.1484 15.221 15.1484 15C15.1484 14.779 15.0606 14.567 14.9043 14.4107C14.748 14.2545 14.5361 14.1667 14.315 14.1667H12.0225C13.3542 12.8147 15.1078 11.9583 16.9928 11.7392C18.8778 11.5202 20.7811 11.9518 22.3872 12.9624C23.9934 13.9731 25.2061 15.5021 25.8243 17.2963C26.4426 19.0904 26.4294 21.0419 25.7868 22.8275C25.1443 24.6131 23.9109 26.1255 22.2912 27.1143C20.6715 28.1031 18.7625 28.5088 16.8807 28.2642C14.9988 28.0196 13.257 27.1395 11.9438 25.7696C10.6306 24.3996 9.82487 22.6222 9.66005 20.7317C9.63844 20.5285 9.54164 20.3408 9.38867 20.2054C9.2357 20.0701 9.03763 19.9968 8.83338 20C8.71683 20.0003 8.60163 20.0249 8.49511 20.0722C8.38859 20.1195 8.29309 20.1884 8.21469 20.2747C8.1363 20.3609 8.07672 20.4625 8.03977 20.5731C8.00281 20.6836 7.98928 20.8006 8.00005 20.9167C8.13183 22.2445 8.52803 23.5326 9.16531 24.7049C9.80259 25.8773 10.6681 26.9103 11.7107 27.743C12.7534 28.5757 13.9522 29.1913 15.2365 29.5536C16.5207 29.9158 17.8645 30.0174 19.1886 29.8522C20.5128 29.6871 21.7905 29.2586 22.9464 28.5921C24.1024 27.9255 25.1133 27.0344 25.9195 25.9711C26.7257 24.9078 27.311 23.6939 27.6408 22.4009C27.9707 21.108 28.0384 19.7621 27.84 18.4425L27.8434 18.4433Z" fill="#FCFCFE"/>
</g>
<defs>
<clipPath id="clip0">
<rect width="20" height="20" fill="white" transform="translate(8 10)"/>
</clipPath>
</defs>
</svg>
