<svg width="36" height="41" viewBox="0 0 36 41" fill="none" xmlns="http://www.w3.org/2000/svg">
<path d="M3.05843 8.40463L15.0584 1.65463C16.8849 0.627236 19.1151 0.627234 20.9416 1.65463L32.9416 8.40463C34.8308 9.46734 36 11.4664 36 13.6341V26.8659C36 29.0336 34.8308 31.0327 32.9416 32.0954L20.9416 38.8454C19.1151 39.8728 16.8849 39.8728 15.0584 38.8454L3.05843 32.0954C1.16917 31.0327 0 29.0336 0 26.8659V13.6341C0 11.4664 1.16917 9.46734 3.05843 8.40463Z" fill="#E8CE90"/>
<g clip-path="url(#clip0)">
<path d="M18 20C18.9889 20 19.9556 19.7068 20.7779 19.1573C21.6001 18.6079 22.241 17.827 22.6194 16.9134C22.9978 15.9998 23.0969 14.9945 22.9039 14.0246C22.711 13.0546 22.2348 12.1637 21.5355 11.4645C20.8363 10.7652 19.9454 10.289 18.9755 10.0961C18.0055 9.90315 17.0002 10.0022 16.0866 10.3806C15.173 10.759 14.3921 11.3999 13.8427 12.2222C13.2932 13.0444 13 14.0111 13 15C13.0013 16.3257 13.5285 17.5967 14.4659 18.5341C15.4033 19.4715 16.6743 19.9987 18 20ZM18 11.6667C18.6593 11.6667 19.3037 11.8622 19.8519 12.2284C20.4001 12.5947 20.8273 13.1153 21.0796 13.7244C21.3319 14.3335 21.3979 15.0037 21.2693 15.6503C21.1407 16.2969 20.8232 16.8909 20.357 17.357C19.8908 17.8232 19.2969 18.1407 18.6503 18.2693C18.0037 18.3979 17.3335 18.3319 16.7244 18.0796C16.1153 17.8273 15.5947 17.4001 15.2284 16.8519C14.8622 16.3037 14.6667 15.6593 14.6667 15C14.6667 14.1159 15.0179 13.2681 15.643 12.643C16.2681 12.0179 17.1159 11.6667 18 11.6667Z" fill="#FCFCFE"/>
<path d="M18 21.6667C16.0116 21.6689 14.1052 22.4598 12.6991 23.8658C11.2931 25.2719 10.5022 27.1782 10.5 29.1667C10.5 29.3877 10.5878 29.5997 10.7441 29.7559C10.9004 29.9122 11.1123 30 11.3333 30C11.5543 30 11.7663 29.9122 11.9226 29.7559C12.0789 29.5997 12.1667 29.3877 12.1667 29.1667C12.1667 27.6196 12.7812 26.1359 13.8752 25.0419C14.9692 23.9479 16.4529 23.3334 18 23.3334C19.5471 23.3334 21.0308 23.9479 22.1248 25.0419C23.2188 26.1359 23.8333 27.6196 23.8333 29.1667C23.8333 29.3877 23.9211 29.5997 24.0774 29.7559C24.2337 29.9122 24.4457 30 24.6667 30C24.8877 30 25.0996 29.9122 25.2559 29.7559C25.4122 29.5997 25.5 29.3877 25.5 29.1667C25.4978 27.1782 24.7069 25.2719 23.3009 23.8658C21.8948 22.4598 19.9884 21.6689 18 21.6667Z" fill="#FCFCFE"/>
</g>
<defs>
<clipPath id="clip0">
<rect width="20" height="20" fill="white" transform="translate(8 10)"/>
</clipPath>
</defs>
</svg>
