<?xml version="1.0" encoding="UTF-8"?>
<svg width="20px" height="20px" viewBox="0 0 20 20" version="1.1" xmlns="http://www.w3.org/2000/svg" xmlns:xlink="http://www.w3.org/1999/xlink">
    <!-- Generator: Sketch 58 (84663) - https://sketch.com -->
    <title>Group</title>
    <desc>Created with Sketch.</desc>
    <g id="Page-1" stroke="none" stroke-width="1" fill="none" fill-rule="evenodd">
        <g id="Group" fill="#F7931A" fill-rule="nonzero">
            <path d="M8.33333,9.99998 C8.33333,10.221 8.24553,10.433 8.08925,10.5892 C7.93297,10.7455 7.72101,10.8333 7.49999,10.8333 L3.39083,10.8333 C3.59261,12.4439 4.37554,13.9254 5.59254,14.9994 C6.80953,16.0734 8.37683,16.6661 9.99999,16.6661 C11.6232,16.6661 13.1905,16.0734 14.4075,14.9994 C15.6245,13.9254 16.4074,12.4439 16.6092,10.8333 L12.5,10.8333 C12.279,10.8333 12.067,10.7455 11.9107,10.5892 C11.7545,10.433 11.6667,10.221 11.6667,9.99998 C11.6667,9.77897 11.7545,9.56701 11.9107,9.41073 C12.067,9.25445 12.279,9.16665 12.5,9.16665 L16.6667,9.16665 L16.6667,7.49998 L12.5,7.49998 C12.279,7.49998 12.067,7.41219 11.9107,7.25591 C11.7545,7.09963 11.6667,6.88766 11.6667,6.66665 C11.6667,6.44564 11.7545,6.23368 11.9107,6.07739 C12.067,5.92111 12.279,5.83332 12.5,5.83332 L16.6092,5.83332 C16.4074,4.22275 15.6245,2.74128 14.4075,1.66724 C13.1905,0.593198 11.6232,0.00050354 9.99999,0.00050354 C8.37683,0.00050354 6.80953,0.593198 5.59254,1.66724 C4.37554,2.74128 3.59261,4.22275 3.39083,5.83332 L7.49999,5.83332 C7.72101,5.83332 7.93297,5.92111 8.08925,6.07739 C8.24553,6.23368 8.33333,6.44564 8.33333,6.66665 C8.33333,6.88766 8.24553,7.09963 8.08925,7.25591 C7.93297,7.41219 7.72101,7.49998 7.49999,7.49998 L3.33333,7.49998 L3.33333,9.16665 L7.49999,9.16665 C7.72101,9.16665 7.93297,9.25445 8.08925,9.41073 C8.24553,9.56701 8.33333,9.77897 8.33333,9.99998 Z" id="Path"></path>
            <path d="M19.1667,10 C18.9457,10 18.7337,10.0878 18.5774,10.2441 C18.4211,10.4004 18.3333,10.6123 18.3333,10.8333 C18.3311,12.8218 17.5402,14.7282 16.1342,16.1342 C14.7282,17.5402 12.8218,18.3311 10.8333,18.3333 L9.16667,18.3333 C7.17829,18.3309 5.27204,17.54 3.86604,16.134 C2.46005,14.728 1.66909,12.8217 1.66667,10.8333 C1.66667,10.6123 1.57887,10.4004 1.42259,10.2441 C1.26631,10.0878 1.05435,10 0.833333,10 C0.61232,10 0.400358,10.0878 0.244078,10.2441 C0.0877974,10.4004 0,10.6123 0,10.8333 C0.00286706,13.2636 0.969559,15.5935 2.68802,17.312 C4.40648,19.0304 6.7364,19.9971 9.16667,20 L10.8333,20 C13.2636,19.9971 15.5935,19.0304 17.312,17.312 C19.0304,15.5935 19.9971,13.2636 20,10.8333 C20,10.6123 19.9122,10.4004 19.7559,10.2441 C19.5996,10.0878 19.3877,10 19.1667,10 Z" id="Path"></path>
        </g>
    </g>
</svg>