<?xml version="1.0" encoding="UTF-8"?>
<svg width="20px" height="4px" viewBox="0 0 20 4" version="1.1" xmlns="http://www.w3.org/2000/svg" xmlns:xlink="http://www.w3.org/1999/xlink">
    <!-- Generator: Sketch 58 (84663) - https://sketch.com -->
    <title>Group</title>
    <desc>Created with Sketch.</desc>
    <g id="Page-1" stroke="none" stroke-width="1" fill="none" fill-rule="evenodd">
        <g id="Group" fill="#F7931A" fill-rule="nonzero">
            <path d="M1.66667,3.6667 C2.58714,3.6667 3.33333,2.9205 3.33333,2 C3.33333,1.07953 2.58714,0.33334 1.66667,0.33334 C0.746192,0.33334 0,1.07953 0,2 C0,2.9205 0.746192,3.6667 1.66667,3.6667 Z" id="Path"></path>
            <path d="M10,3.6667 C10.9205,3.6667 11.6667,2.9205 11.6667,2 C11.6667,1.07953 10.9205,0.33334 10,0.33334 C9.07954,0.33334 8.33334,1.07953 8.33334,2 C8.33334,2.9205 9.07954,3.6667 10,3.6667 Z" id="Path"></path>
            <path d="M18.3333,3.6667 C19.2538,3.6667 20,2.9205 20,2 C20,1.07953 19.2538,0.33334 18.3333,0.33334 C17.4128,0.33334 16.6667,1.07953 16.6667,2 C16.6667,2.9205 17.4128,3.6667 18.3333,3.6667 Z" id="Path"></path>
        </g>
    </g>
</svg>