<svg width="36" height="41" viewBox="0 0 36 41" fill="none" xmlns="http://www.w3.org/2000/svg">
<path d="M3.05843 8.40463L15.0584 1.65463C16.8849 0.627236 19.1151 0.627234 20.9416 1.65463L32.9416 8.40463C34.8308 9.46734 36 11.4664 36 13.6341V26.8659C36 29.0336 34.8308 31.0327 32.9416 32.0954L20.9416 38.8454C19.1151 39.8728 16.8849 39.8728 15.0584 38.8454L3.05843 32.0954C1.16917 31.0327 0 29.0336 0 26.8659V13.6341C0 11.4664 1.16917 9.46734 3.05843 8.40463Z" fill="#F7931A"/>
<g clip-path="url(#clip0)">
<path d="M13.8333 10H11.3333C10.4493 10 9.60143 10.3512 8.97631 10.9763C8.35119 11.6014 8 12.4493 8 13.3333V15.8333C8 16.7174 8.35119 17.5652 8.97631 18.1904C9.60143 18.8155 10.4493 19.1667 11.3333 19.1667H13.8333C14.7174 19.1667 15.5652 18.8155 16.1904 18.1904C16.8155 17.5652 17.1667 16.7174 17.1667 15.8333V13.3333C17.1667 12.4493 16.8155 11.6014 16.1904 10.9763C15.5652 10.3512 14.7174 10 13.8333 10V10ZM15.5 15.8333C15.5 16.2754 15.3244 16.6993 15.0118 17.0118C14.6993 17.3244 14.2754 17.5 13.8333 17.5H11.3333C10.8913 17.5 10.4674 17.3244 10.1548 17.0118C9.84226 16.6993 9.66667 16.2754 9.66667 15.8333V13.3333C9.66667 12.8913 9.84226 12.4674 10.1548 12.1548C10.4674 11.8423 10.8913 11.6667 11.3333 11.6667H13.8333C14.2754 11.6667 14.6993 11.8423 15.0118 12.1548C15.3244 12.4674 15.5 12.8913 15.5 13.3333V15.8333Z" fill="#FCFCFE"/>
<path d="M24.6667 10H22.1667C21.2827 10 20.4348 10.3512 19.8097 10.9763C19.1846 11.6014 18.8334 12.4493 18.8334 13.3333V15.8333C18.8334 16.7174 19.1846 17.5652 19.8097 18.1904C20.4348 18.8155 21.2827 19.1667 22.1667 19.1667H24.6667C25.5508 19.1667 26.3986 18.8155 27.0237 18.1904C27.6488 17.5652 28 16.7174 28 15.8333V13.3333C28 12.4493 27.6488 11.6014 27.0237 10.9763C26.3986 10.3512 25.5508 10 24.6667 10V10ZM26.3334 15.8333C26.3334 16.2754 26.1578 16.6993 25.8452 17.0118C25.5327 17.3244 25.1087 17.5 24.6667 17.5H22.1667C21.7247 17.5 21.3008 17.3244 20.9882 17.0118C20.6756 16.6993 20.5 16.2754 20.5 15.8333V13.3333C20.5 12.8913 20.6756 12.4674 20.9882 12.1548C21.3008 11.8423 21.7247 11.6667 22.1667 11.6667H24.6667C25.1087 11.6667 25.5327 11.8423 25.8452 12.1548C26.1578 12.4674 26.3334 12.8913 26.3334 13.3333V15.8333Z" fill="#FCFCFE"/>
<path d="M13.8333 20.8333H11.3333C10.4493 20.8333 9.60143 21.1844 8.97631 21.8096C8.35119 22.4347 8 23.2825 8 24.1666V26.6666C8 27.5506 8.35119 28.3985 8.97631 29.0236C9.60143 29.6487 10.4493 29.9999 11.3333 29.9999H13.8333C14.7174 29.9999 15.5652 29.6487 16.1904 29.0236C16.8155 28.3985 17.1667 27.5506 17.1667 26.6666V24.1666C17.1667 23.2825 16.8155 22.4347 16.1904 21.8096C15.5652 21.1844 14.7174 20.8333 13.8333 20.8333ZM15.5 26.6666C15.5 27.1086 15.3244 27.5325 15.0118 27.8451C14.6993 28.1577 14.2754 28.3333 13.8333 28.3333H11.3333C10.8913 28.3333 10.4674 28.1577 10.1548 27.8451C9.84226 27.5325 9.66667 27.1086 9.66667 26.6666V24.1666C9.66667 23.7246 9.84226 23.3006 10.1548 22.9881C10.4674 22.6755 10.8913 22.4999 11.3333 22.4999H13.8333C14.2754 22.4999 14.6993 22.6755 15.0118 22.9881C15.3244 23.3006 15.5 23.7246 15.5 24.1666V26.6666Z" fill="#FCFCFE"/>
<path d="M24.6667 20.8333H22.1667C21.2827 20.8333 20.4348 21.1844 19.8097 21.8096C19.1846 22.4347 18.8334 23.2825 18.8334 24.1666V26.6666C18.8334 27.5506 19.1846 28.3985 19.8097 29.0236C20.4348 29.6487 21.2827 29.9999 22.1667 29.9999H24.6667C25.5508 29.9999 26.3986 29.6487 27.0237 29.0236C27.6488 28.3985 28 27.5506 28 26.6666V24.1666C28 23.2825 27.6488 22.4347 27.0237 21.8096C26.3986 21.1844 25.5508 20.8333 24.6667 20.8333ZM26.3334 26.6666C26.3334 27.1086 26.1578 27.5325 25.8452 27.8451C25.5327 28.1577 25.1087 28.3333 24.6667 28.3333H22.1667C21.7247 28.3333 21.3008 28.1577 20.9882 27.8451C20.6756 27.5325 20.5 27.1086 20.5 26.6666V24.1666C20.5 23.7246 20.6756 23.3006 20.9882 22.9881C21.3008 22.6755 21.7247 22.4999 22.1667 22.4999H24.6667C25.1087 22.4999 25.5327 22.6755 25.8452 22.9881C26.1578 23.3006 26.3334 23.7246 26.3334 24.1666V26.6666Z" fill="#FCFCFE"/>
</g>
<defs>
<clipPath id="clip0">
<rect width="20" height="20" fill="white" transform="translate(8 10)"/>
</clipPath>
</defs>
</svg>
