<svg width="20" height="20" viewBox="0 0 20 20" fill="none" xmlns="http://www.w3.org/2000/svg">
<path d="M4.05256 4.16658H5.67356V5.83325H4.05256V4.16658ZM0.810547 0.833252H8.91557V9.16658H0.810547V0.833252ZM2.43155 2.49992V7.49992H7.29456V2.49992H2.43155ZM4.05256 14.1666H5.67356V15.8333H4.05256V14.1666ZM0.810547 10.8333H8.91557V19.1666H0.810547V10.8333ZM2.43155 12.4999V17.4999H7.29456V12.4999H2.43155ZM10.5366 10.8333H13.7786V12.4999H15.3996V10.8333H18.6416V12.4999H15.3996V14.1666H18.6416V19.1666H15.3996V17.4999H12.1576V19.1666H10.5366V17.4999H12.1576V15.8333H10.5366V10.8333ZM17.0206 17.4999V15.8333H15.3996V17.4999H17.0206ZM15.3996 14.1666H13.7786V12.4999H12.1576V15.8333H15.3996V14.1666ZM13.7786 1.66659V4.16658H11.3471V5.83325H13.7786V8.33325H15.3996V5.83325H17.8311V4.16658H15.3996V1.66659H13.7786Z" fill="#F7931A"/>
</svg>
