<svg width="13" height="12" viewBox="0 0 13 12" fill="none" xmlns="http://www.w3.org/2000/svg">
<g clip-path="url(#clip0)">
<path d="M10 3.00003H7.6605C7.46119 2.85799 7.23722 2.75423 7 2.69403V2.50003L8.765 1.67403C8.83736 1.62919 8.89706 1.56662 8.93847 1.49225C8.97988 1.41787 9.00161 1.33416 9.00161 1.24903C9.00161 1.16391 8.97988 1.0802 8.93847 1.00582C8.89706 0.931447 8.83736 0.868875 8.765 0.824033L7.165 0.0740333C7.04008 0.0156593 6.90243 -0.0102084 6.76484 -0.00116873C6.62724 0.00787098 6.49417 0.0515251 6.37795 0.125742C6.26174 0.199958 6.16616 0.302331 6.10009 0.423359C6.03401 0.544386 5.99959 0.680145 6 0.818033V2.69403C5.7629 2.75414 5.53908 2.85791 5.34 3.00003H3C2.3372 3.00083 1.70178 3.26447 1.23311 3.73314C0.764441 4.20181 0.500794 4.83724 0.5 5.50003L0.5 10.5C0.5 10.8979 0.658035 11.2794 0.93934 11.5607C1.22064 11.842 1.60218 12 2 12H11C11.3978 12 11.7794 11.842 12.0607 11.5607C12.342 11.2794 12.5 10.8979 12.5 10.5V5.50003C12.4992 4.83724 12.2356 4.20181 11.7669 3.73314C11.2982 3.26447 10.6628 3.00083 10 3.00003ZM11.408 5.00003H10.3285C9.93089 4.99902 9.54976 4.84107 9.268 4.56053L8.707 4.00003H10C10.3091 4.00132 10.6103 4.09808 10.8623 4.27708C11.1144 4.45608 11.305 4.70858 11.408 5.00003ZM3 4.00003H4.293L3.732 4.56053C3.45024 4.84107 3.06911 4.99902 2.6715 5.00003H1.592C1.69504 4.70858 1.88562 4.45608 2.13765 4.27708C2.38969 4.09808 2.69087 4.00132 3 4.00003ZM7 11H6V9.50003C6 9.36743 6.05268 9.24025 6.14645 9.14648C6.24021 9.05271 6.36739 9.00003 6.5 9.00003C6.63261 9.00003 6.75979 9.05271 6.85355 9.14648C6.94732 9.24025 7 9.36743 7 9.50003V11ZM11 11H8V9.50003C8 9.10221 7.84196 8.72068 7.56066 8.43937C7.27936 8.15807 6.89782 8.00003 6.5 8.00003C6.10218 8.00003 5.72064 8.15807 5.43934 8.43937C5.15804 8.72068 5 9.10221 5 9.50003V11H2C1.86739 11 1.74021 10.9474 1.64645 10.8536C1.55268 10.7598 1.5 10.6326 1.5 10.5V6.00003H2.6715C2.99991 6.00084 3.32522 5.93652 3.6286 5.81078C3.93199 5.68505 4.20744 5.50041 4.439 5.26753L5.793 3.91403C5.98053 3.72656 6.23484 3.62125 6.5 3.62125C6.76516 3.62125 7.01947 3.72656 7.207 3.91403L8.561 5.26753C8.79256 5.50041 9.06801 5.68505 9.3714 5.81078C9.67478 5.93652 10.0001 6.00084 10.3285 6.00003H11.5V10.5C11.5 10.6326 11.4473 10.7598 11.3536 10.8536C11.2598 10.9474 11.1326 11 11 11ZM4 7.50003C4 7.63264 3.94732 7.75982 3.85355 7.85359C3.75979 7.94736 3.63261 8.00003 3.5 8.00003H3C2.86739 8.00003 2.74021 7.94736 2.64645 7.85359C2.55268 7.75982 2.5 7.63264 2.5 7.50003C2.5 7.36743 2.55268 7.24025 2.64645 7.14648C2.74021 7.05271 2.86739 7.00003 3 7.00003H3.5C3.63261 7.00003 3.75979 7.05271 3.85355 7.14648C3.94732 7.24025 4 7.36743 4 7.50003ZM4 9.50003C4 9.63264 3.94732 9.75982 3.85355 9.85359C3.75979 9.94736 3.63261 10 3.5 10H3C2.86739 10 2.74021 9.94736 2.64645 9.85359C2.55268 9.75982 2.5 9.63264 2.5 9.50003C2.5 9.36743 2.55268 9.24025 2.64645 9.14648C2.74021 9.05271 2.86739 9.00003 3 9.00003H3.5C3.63261 9.00003 3.75979 9.05271 3.85355 9.14648C3.94732 9.24025 4 9.36743 4 9.50003ZM10.5 7.50003C10.5 7.63264 10.4473 7.75982 10.3536 7.85359C10.2598 7.94736 10.1326 8.00003 10 8.00003H9.5C9.36739 8.00003 9.24021 7.94736 9.14645 7.85359C9.05268 7.75982 9 7.63264 9 7.50003C9 7.36743 9.05268 7.24025 9.14645 7.14648C9.24021 7.05271 9.36739 7.00003 9.5 7.00003H10C10.1326 7.00003 10.2598 7.05271 10.3536 7.14648C10.4473 7.24025 10.5 7.36743 10.5 7.50003ZM10.5 9.50003C10.5 9.63264 10.4473 9.75982 10.3536 9.85359C10.2598 9.94736 10.1326 10 10 10H9.5C9.36739 10 9.24021 9.94736 9.14645 9.85359C9.05268 9.75982 9 9.63264 9 9.50003C9 9.36743 9.05268 9.24025 9.14645 9.14648C9.24021 9.05271 9.36739 9.00003 9.5 9.00003H10C10.1326 9.00003 10.2598 9.05271 10.3536 9.14648C10.4473 9.24025 10.5 9.36743 10.5 9.50003ZM7.5 6.00003C7.5 6.19782 7.44135 6.39116 7.33147 6.5556C7.22159 6.72005 7.06541 6.84823 6.88268 6.92391C6.69996 6.9996 6.49889 7.0194 6.30491 6.98082C6.11093 6.94223 5.93275 6.84699 5.79289 6.70714C5.65304 6.56729 5.5578 6.38911 5.51921 6.19512C5.48063 6.00114 5.50043 5.80008 5.57612 5.61735C5.65181 5.43462 5.77998 5.27845 5.94443 5.16856C6.10888 5.05868 6.30222 5.00003 6.5 5.00003C6.76522 5.00003 7.01957 5.10539 7.20711 5.29293C7.39464 5.48046 7.5 5.73482 7.5 6.00003Z" fill="#797D88"/>
</g>
<defs>
<clipPath id="clip0">
<rect width="12" height="12" fill="white" transform="translate(0.5)"/>
</clipPath>
</defs>
</svg>
