<?xml version="1.0" encoding="UTF-8"?>
<svg width="24px" height="24px" viewBox="0 0 24 24" version="1.1" xmlns="http://www.w3.org/2000/svg" xmlns:xlink="http://www.w3.org/1999/xlink">
    <!-- Generator: Sketch 58 (84663) - https://sketch.com -->
    <title>Group</title>
    <desc>Created with Sketch.</desc>
    <g id="Page-1" stroke="none" stroke-width="1" fill="none" fill-rule="evenodd">
        <g id="Group" fill="#FFFFFF" fill-rule="nonzero">
            <path d="M6.85678,12.0854 C7.94108,14.3022 9.73798,16.0909 11.9597,17.1651 C12.1222,17.2421 12.302,17.2755 12.4814,17.2619 C12.6607,17.2484 12.8335,17.1883 12.9826,17.0877 L16.2539,14.9064 C16.3985,14.8099 16.565,14.751 16.7382,14.7351 C16.9113,14.7192 17.0857,14.7468 17.2456,14.8153 L23.3655,17.4381 C23.5734,17.5264 23.7469,17.6799 23.86,17.8754 C23.9731,18.0709 24.0196,18.2979 23.9925,18.5222 C23.799,20.0358 23.0605,21.427 21.9152,22.4353 C20.7699,23.4436 19.2963,24 17.7703,24 C13.0574,24 8.5374,22.1278 5.20482,18.7952 C1.87223,15.4626 -4.97379915e-14,10.9426 -4.97379915e-14,6.22965001 C-4.97379915e-14,4.70372001 0.55636,3.23014001 1.56468,2.08482001 C2.573,0.93949801 3.96422,0.20098201 5.47784,0.0075474297 C5.70208,-0.0195890903 5.92906,0.0268841097 6.12459,0.13996501 C6.32012,0.25304701 6.47361,0.42661001 6.56192,0.63450501 L9.18703,6.75977001 C9.25493,6.91821001 9.2826,7.09097001 9.26757,7.26269001 C9.25254,7.43440001 9.19528,7.59974001 9.10089,7.74397001 L6.9271,11.0654 C6.82817,11.2148 6.76968,11.3874 6.75735,11.5661 C6.74503,11.7449 6.77928,11.9238 6.85678,12.0854 Z" id="Path"></path>
        </g>
    </g>
</svg>