<?xml version="1.0" encoding="UTF-8"?>
<svg width="8px" height="14px" viewBox="0 0 8 14" version="1.1" xmlns="http://www.w3.org/2000/svg" xmlns:xlink="http://www.w3.org/1999/xlink">
    <!-- Generator: Sketch 58 (84663) - https://sketch.com -->
    <title>Group</title>
    <desc>Created with Sketch.</desc>
    <g id="Page-1" stroke="none" stroke-width="1" fill="none" fill-rule="evenodd">
        <g id="Group" fill="#F7931A" fill-rule="nonzero">
            <path d="M6.39988,4.87891 L1.81088,0.292915 C1.62047,0.120754 1.37115,0.0284085 1.11454,0.0349978 C0.857923,0.0415872 0.613671,0.146607 0.43235,0.328313 C0.25103,0.510019 0.146529,0.754495 0.140485,1.01112 C0.134441,1.26775 0.227315,1.51687 0.39988,1.70691 L4.98588,6.29292 C5.17335,6.48044 5.27867,6.73475 5.27867,6.99992 C5.27867,7.26508 5.17335,7.51939 4.98588,7.70691 L0.39988,12.2929 C0.212371,12.4806 0.107084,12.735 0.107177937,13.0003 C0.107272,13.2655 0.21274,13.5199 0.40038,13.7074 C0.588021,13.8949 0.842464,14.0001001 1.10773,14.0001001 C1.373,14.0001001 1.62737,13.8946 1.81488,13.7069 L6.39988,9.12092 C6.96229,8.55833 7.27824,7.79541 7.27824,6.99992 C7.27824,6.20442 6.96229,5.4415 6.39988,4.87891 Z" id="Path"></path>
        </g>
    </g>
</svg>