<svg width="36" height="41" viewBox="0 0 36 41" fill="none" xmlns="http://www.w3.org/2000/svg">
<path d="M3.05843 8.40463L15.0584 1.65463C16.8849 0.627236 19.1151 0.627234 20.9416 1.65463L32.9416 8.40463C34.8308 9.46734 36 11.4664 36 13.6341V26.8659C36 29.0336 34.8308 31.0327 32.9416 32.0954L20.9416 38.8454C19.1151 39.8728 16.8849 39.8728 15.0584 38.8454L3.05843 32.0954C1.16917 31.0327 0 29.0336 0 26.8659V13.6341C0 11.4664 1.16917 9.46734 3.05843 8.40463Z" fill="#7DB2AC"/>
<g clip-path="url(#clip0)">
<path d="M23.8333 15.0001H19.9342C19.602 14.7633 19.2287 14.5904 18.8333 14.4901V14.1667L21.775 12.7901C21.8956 12.7153 21.9951 12.611 22.0641 12.4871C22.1331 12.3631 22.1693 12.2236 22.1693 12.0817C22.1693 11.9398 22.1331 11.8003 22.0641 11.6764C21.9951 11.5524 21.8956 11.4481 21.775 11.3734L19.1083 10.1234C18.9001 10.0261 18.6707 9.98299 18.4414 9.99805C18.2121 10.0131 17.9903 10.0859 17.7966 10.2096C17.6029 10.3333 17.4436 10.5039 17.3335 10.7056C17.2234 10.9073 17.166 11.1336 17.1667 11.3634V14.4901C16.7715 14.5902 16.3985 14.7632 16.0667 15.0001H12.1667C11.062 15.0014 10.003 15.4408 9.22185 16.2219C8.44073 17.003 8.00132 18.0621 8 19.1667L8 27.5001C8 28.1631 8.26339 28.799 8.73223 29.2678C9.20107 29.7367 9.83696 30.0001 10.5 30.0001H25.5C26.163 30.0001 26.7989 29.7367 27.2678 29.2678C27.7366 28.799 28 28.1631 28 27.5001V19.1667C27.9987 18.0621 27.5593 17.003 26.7782 16.2219C25.997 15.4408 24.938 15.0014 23.8333 15.0001ZM26.18 18.3334H24.3808C23.7182 18.3317 23.0829 18.0685 22.6133 17.6009L21.6783 16.6667H23.8333C24.3486 16.6689 24.8505 16.8301 25.2706 17.1285C25.6906 17.4268 26.0083 17.8476 26.18 18.3334ZM12.1667 16.6667H14.3217L13.3867 17.6009C12.9171 18.0685 12.2818 18.3317 11.6192 18.3334H9.82C9.99174 17.8476 10.3094 17.4268 10.7294 17.1285C11.1495 16.8301 11.6514 16.6689 12.1667 16.6667ZM18.8333 28.3334H17.1667V25.8334C17.1667 25.6124 17.2545 25.4004 17.4107 25.2441C17.567 25.0879 17.779 25.0001 18 25.0001C18.221 25.0001 18.433 25.0879 18.5893 25.2441C18.7455 25.4004 18.8333 25.6124 18.8333 25.8334V28.3334ZM25.5 28.3334H20.5V25.8334C20.5 25.1703 20.2366 24.5345 19.7678 24.0656C19.2989 23.5968 18.663 23.3334 18 23.3334C17.337 23.3334 16.7011 23.5968 16.2322 24.0656C15.7634 24.5345 15.5 25.1703 15.5 25.8334V28.3334H10.5C10.279 28.3334 10.067 28.2456 9.91074 28.0893C9.75446 27.933 9.66667 27.7211 9.66667 27.5001V20.0001H11.6192C12.1665 20.0014 12.7087 19.8942 13.2143 19.6846C13.72 19.4751 14.1791 19.1673 14.565 18.7792L16.8217 16.5234C17.1342 16.2109 17.5581 16.0354 18 16.0354C18.4419 16.0354 18.8658 16.2109 19.1783 16.5234L21.435 18.7792C21.8209 19.1673 22.28 19.4751 22.7857 19.6846C23.2913 19.8942 23.8335 20.0014 24.3808 20.0001H26.3333V27.5001C26.3333 27.7211 26.2455 27.933 26.0893 28.0893C25.933 28.2456 25.721 28.3334 25.5 28.3334ZM13.8333 22.5001C13.8333 22.7211 13.7455 22.933 13.5893 23.0893C13.433 23.2456 13.221 23.3334 13 23.3334H12.1667C11.9457 23.3334 11.7337 23.2456 11.5774 23.0893C11.4211 22.933 11.3333 22.7211 11.3333 22.5001C11.3333 22.279 11.4211 22.0671 11.5774 21.9108C11.7337 21.7545 11.9457 21.6667 12.1667 21.6667H13C13.221 21.6667 13.433 21.7545 13.5893 21.9108C13.7455 22.0671 13.8333 22.279 13.8333 22.5001ZM13.8333 25.8334C13.8333 26.0544 13.7455 26.2664 13.5893 26.4226C13.433 26.5789 13.221 26.6667 13 26.6667H12.1667C11.9457 26.6667 11.7337 26.5789 11.5774 26.4226C11.4211 26.2664 11.3333 26.0544 11.3333 25.8334C11.3333 25.6124 11.4211 25.4004 11.5774 25.2441C11.7337 25.0879 11.9457 25.0001 12.1667 25.0001H13C13.221 25.0001 13.433 25.0879 13.5893 25.2441C13.7455 25.4004 13.8333 25.6124 13.8333 25.8334ZM24.6667 22.5001C24.6667 22.7211 24.5789 22.933 24.4226 23.0893C24.2663 23.2456 24.0543 23.3334 23.8333 23.3334H23C22.779 23.3334 22.567 23.2456 22.4107 23.0893C22.2545 22.933 22.1667 22.7211 22.1667 22.5001C22.1667 22.279 22.2545 22.0671 22.4107 21.9108C22.567 21.7545 22.779 21.6667 23 21.6667H23.8333C24.0543 21.6667 24.2663 21.7545 24.4226 21.9108C24.5789 22.0671 24.6667 22.279 24.6667 22.5001ZM24.6667 25.8334C24.6667 26.0544 24.5789 26.2664 24.4226 26.4226C24.2663 26.5789 24.0543 26.6667 23.8333 26.6667H23C22.779 26.6667 22.567 26.5789 22.4107 26.4226C22.2545 26.2664 22.1667 26.0544 22.1667 25.8334C22.1667 25.6124 22.2545 25.4004 22.4107 25.2441C22.567 25.0879 22.779 25.0001 23 25.0001H23.8333C24.0543 25.0001 24.2663 25.0879 24.4226 25.2441C24.5789 25.4004 24.6667 25.6124 24.6667 25.8334ZM19.6667 20.0001C19.6667 20.3297 19.5689 20.6519 19.3858 20.926C19.2026 21.2001 18.9423 21.4137 18.6378 21.5399C18.3333 21.666 17.9982 21.699 17.6748 21.6347C17.3515 21.5704 17.0546 21.4117 16.8215 21.1786C16.5884 20.9455 16.4297 20.6485 16.3654 20.3252C16.301 20.0019 16.3341 19.6668 16.4602 19.3623C16.5863 19.0577 16.8 18.7974 17.074 18.6143C17.3481 18.4311 17.6704 18.3334 18 18.3334C18.442 18.3334 18.8659 18.509 19.1785 18.8215C19.4911 19.1341 19.6667 19.558 19.6667 20.0001Z" fill="#FCFCFE"/>
</g>
<defs>
<clipPath id="clip0">
<rect width="20" height="20" fill="white" transform="translate(8 10)"/>
</clipPath>
</defs>
</svg>
