<?xml version="1.0" encoding="UTF-8"?>
<svg width="16px" height="16px" viewBox="0 0 16 16" version="1.1" xmlns="http://www.w3.org/2000/svg" xmlns:xlink="http://www.w3.org/1999/xlink">
    <!-- Generator: Sketch 58 (84663) - https://sketch.com -->
    <title>Group</title>
    <desc>Created with Sketch.</desc>
    <g id="Page-1" stroke="none" stroke-width="1" fill="none" fill-rule="evenodd">
        <g id="Group" fill="#C2C6CC">
            <path d="M8,0 C12.4183,0 16,3.58172 16,8 C16,12.4183 12.4183,16 8,16 C3.58172,16 0,12.4183 0,8 C0,3.58172 3.58172,0 8,0 Z M8,2 C4.68629,2 2,4.68629 2,8 C2,11.3137 4.68629,14 8,14 C11.3137,14 14,11.3137 14,8 C14,4.68629 11.3137,2 8,2 Z M10.4188,5.03912 L6.68587,8.77209 L5.20668,7.29289 L5.11247,7.2097 C4.72018,6.90468 4.15295,6.93241 3.79246,7.29289 C3.40194,7.68342 3.40194,8.31658 3.79246,8.70711 L5.97876,10.8934 L6.07297,10.9766 C6.46526,11.2816 7.03249,11.2539 7.39298,10.8934 L11.8331,6.45333 L11.9162,6.35913 C12.2213,5.96683 12.1935,5.3996 11.8331,5.03912 C11.4425,4.6486 10.8094,4.6486 10.4188,5.03912 Z" id="Shape"></path>
        </g>
    </g>
</svg>