<svg width="16" height="16" viewBox="0 0 16 16" fill="none" xmlns="http://www.w3.org/2000/svg">
<g clip-path="url(#clip0)">
<path d="M12.8887 9.77804C12.3846 9.77845 11.8882 9.90151 11.4423 10.1366C10.9964 10.3717 10.6145 10.7117 10.3293 11.1274L5.99 9.16804C6.2982 8.4238 6.2994 7.58783 5.99333 6.84271L10.3267 4.87338C10.7492 5.48455 11.3769 5.92402 12.0957 6.11207C12.8146 6.30013 13.577 6.22431 14.2447 5.89838C14.9125 5.57244 15.4413 5.01797 15.7352 4.33555C16.0292 3.65313 16.0688 2.88796 15.8469 2.17883C15.625 1.46969 15.1563 0.863574 14.5258 0.470413C13.8953 0.0772522 13.1448 -0.0769087 12.4104 0.0358936C11.6759 0.148696 11.0063 0.52099 10.5228 1.08524C10.0394 1.6495 9.77418 2.36834 9.77533 3.11138C9.77815 3.28724 9.796 3.46255 9.82866 3.63538L5.222 5.72871C4.77956 5.31419 4.22567 5.03793 3.62838 4.93388C3.03109 4.82983 2.41641 4.90252 1.85987 5.14301C1.30332 5.38351 0.829146 5.78133 0.495593 6.28762C0.16204 6.7939 -0.0163606 7.38659 -0.0176927 7.99288C-0.0190248 8.59916 0.15677 9.19263 0.488095 9.70037C0.81942 10.2081 1.29184 10.608 1.84733 10.851C2.40281 11.0939 3.01716 11.1693 3.6149 11.0679C4.21264 10.9664 4.76774 10.6926 5.212 10.28L9.83066 12.3654C9.79858 12.5381 9.78096 12.7131 9.778 12.8887C9.77786 13.5041 9.96025 14.1058 10.3021 14.6175C10.6439 15.1293 11.1298 15.5282 11.6984 15.7637C12.2669 15.9993 12.8926 16.061 13.4962 15.941C14.0998 15.8209 14.6542 15.5246 15.0894 15.0894C15.5245 14.6543 15.8209 14.0998 15.9409 13.4962C16.0609 12.8926 15.9993 12.267 15.7637 11.6984C15.5281 11.1299 15.1292 10.6439 14.6175 10.3021C14.1057 9.96029 13.5041 9.77791 12.8887 9.77804ZM12.8887 1.33338C13.2403 1.33324 13.5842 1.43741 13.8766 1.6327C14.1691 1.82799 14.3971 2.10563 14.5318 2.4305C14.6665 2.75538 14.7018 3.1129 14.6332 3.45784C14.5647 3.80278 14.3954 4.11965 14.1468 4.36838C13.8982 4.6171 13.5814 4.78651 13.2364 4.85516C12.8915 4.92382 12.534 4.88865 12.2091 4.7541C11.8841 4.61954 11.6064 4.39165 11.411 4.09925C11.2156 3.80684 11.1113 3.46306 11.1113 3.11138C11.1117 2.64004 11.299 2.18811 11.6322 1.85477C11.9655 1.52142 12.4173 1.33391 12.8887 1.33338ZM3.11133 9.77804C2.75965 9.77817 2.41582 9.67401 2.12334 9.47872C1.83087 9.28343 1.60287 9.00579 1.4682 8.68092C1.33352 8.35604 1.29822 7.99852 1.36674 7.65358C1.43527 7.30864 1.60456 6.99177 1.85319 6.74304C2.10182 6.49432 2.41863 6.32491 2.76355 6.25626C3.10846 6.1876 3.46599 6.22277 3.79092 6.35732C4.11585 6.49187 4.39357 6.71976 4.58897 7.01217C4.78437 7.30457 4.88866 7.64836 4.88866 8.00004C4.88813 8.47132 4.70073 8.92315 4.36755 9.25646C4.03437 9.58977 3.58261 9.77734 3.11133 9.77804ZM12.8887 14.6667C12.537 14.6667 12.1932 14.5624 11.9009 14.3671C11.6085 14.1717 11.3806 13.894 11.246 13.5691C11.1114 13.2442 11.0762 12.8867 11.1448 12.5418C11.2134 12.1969 11.3828 11.8801 11.6314 11.6315C11.8801 11.3828 12.1969 11.2135 12.5418 11.1449C12.8867 11.0763 13.2442 11.1115 13.5691 11.2461C13.894 11.3806 14.1716 11.6085 14.367 11.9009C14.5624 12.1933 14.6667 12.5371 14.6667 12.8887C14.6663 13.3602 14.4789 13.8122 14.1455 14.1456C13.8121 14.4789 13.3601 14.6664 12.8887 14.6667Z" fill="#FCFCFE"/>
</g>
<defs>
<clipPath id="clip0">
<rect width="16" height="16" fill="white"/>
</clipPath>
</defs>
</svg>
