<svg width="36" height="41" viewBox="0 0 36 41" fill="none" xmlns="http://www.w3.org/2000/svg">
<path d="M3.05843 8.40463L15.0584 1.65463C16.8849 0.627236 19.1151 0.627234 20.9416 1.65463L32.9416 8.40463C34.8308 9.46734 36 11.4664 36 13.6341V26.8659C36 29.0336 34.8308 31.0327 32.9416 32.0954L20.9416 38.8454C19.1151 39.8728 16.8849 39.8728 15.0584 38.8454L3.05843 32.0954C1.16917 31.0327 0 29.0336 0 26.8659V13.6341C0 11.4664 1.16917 9.46734 3.05843 8.40463Z" fill="#C199AC"/>
<path d="M18 16.6666C17.3407 16.6666 16.6962 16.8621 16.1481 17.2284C15.5999 17.5947 15.1727 18.1153 14.9204 18.7243C14.6681 19.3334 14.6021 20.0037 14.7307 20.6503C14.8593 21.2969 15.1768 21.8908 15.6429 22.357C16.1091 22.8232 16.7031 23.1406 17.3497 23.2692C17.9963 23.3979 18.6665 23.3319 19.2756 23.0796C19.8847 22.8273 20.4053 22.4 20.7715 21.8519C21.1378 21.3037 21.3333 20.6592 21.3333 20C21.3333 19.1159 20.9821 18.2681 20.357 17.6429C19.7319 17.0178 18.884 16.6666 18 16.6666ZM18 21.6666C17.6703 21.6666 17.3481 21.5689 17.074 21.3857C16.7999 21.2026 16.5863 20.9423 16.4602 20.6378C16.334 20.3332 16.301 19.9981 16.3653 19.6748C16.4296 19.3515 16.5884 19.0545 16.8214 18.8214C17.0545 18.5884 17.3515 18.4296 17.6748 18.3653C17.9981 18.301 18.3332 18.334 18.6378 18.4602C18.9423 18.5863 19.2026 18.7999 19.3857 19.074C19.5689 19.3481 19.6666 19.6703 19.6666 20C19.6666 20.442 19.491 20.8659 19.1785 21.1785C18.8659 21.491 18.442 21.6666 18 21.6666Z" fill="#FCFCFE"/>
<path d="M25.745 21.5833L25.375 21.37C25.5416 20.4637 25.5416 19.5346 25.375 18.6283L25.745 18.415C26.0296 18.2508 26.279 18.0323 26.479 17.7717C26.6791 17.5112 26.8259 17.2138 26.911 16.8965C26.9961 16.5792 27.0179 16.2483 26.9751 15.9226C26.9324 15.5969 26.8259 15.2829 26.6617 14.9983C26.4976 14.7138 26.279 14.4644 26.0184 14.2643C25.7579 14.0643 25.4605 13.9175 25.1432 13.8324C24.826 13.7473 24.495 13.7255 24.1693 13.7682C23.8436 13.811 23.5296 13.9175 23.245 14.0817L22.8742 14.2958C22.1738 13.6974 21.3689 13.2335 20.5 12.9275V12.5C20.5 11.837 20.2366 11.2011 19.7678 10.7322C19.299 10.2634 18.6631 10 18 10C17.337 10 16.7011 10.2634 16.2323 10.7322C15.7634 11.2011 15.5 11.837 15.5 12.5V12.9275C14.6312 13.2346 13.8266 13.6997 13.1267 14.2992L12.7542 14.0833C12.1796 13.7518 11.4968 13.6621 10.856 13.8341C10.2153 14.006 9.66906 14.4254 9.33754 15C9.00602 15.5746 8.91635 16.2574 9.08825 16.8982C9.26016 17.5389 9.67957 18.0851 10.2542 18.4167L10.6242 18.63C10.4576 19.5363 10.4576 20.4654 10.6242 21.3717L10.2542 21.585C9.67957 21.9165 9.26016 22.4627 9.08825 23.1035C8.91635 23.7442 9.00602 24.427 9.33754 25.0017C9.66906 25.5763 10.2153 25.9957 10.856 26.1676C11.4968 26.3395 12.1796 26.2499 12.7542 25.9183L13.125 25.7042C13.8257 26.3027 14.6309 26.7666 15.5 27.0725V27.5C15.5 28.163 15.7634 28.7989 16.2323 29.2678C16.7011 29.7366 17.337 30 18 30C18.6631 30 19.299 29.7366 19.7678 29.2678C20.2366 28.7989 20.5 28.163 20.5 27.5V27.0725C21.3689 26.7654 22.1735 26.3003 22.8734 25.7008L23.2459 25.9158C23.8205 26.2474 24.5033 26.337 25.1441 26.1651C25.7848 25.9932 26.331 25.5738 26.6625 24.9992C26.9941 24.4245 27.0837 23.7417 26.9118 23.101C26.7399 22.4602 26.3205 21.914 25.7459 21.5825L25.745 21.5833ZM23.6217 18.4367C23.9039 19.4592 23.9039 20.5391 23.6217 21.5617C23.5724 21.7396 23.5837 21.9289 23.6537 22.0998C23.7236 22.2707 23.8484 22.4135 24.0084 22.5058L24.9117 23.0275C25.1032 23.138 25.243 23.3201 25.3003 23.5336C25.3575 23.7472 25.3276 23.9747 25.2171 24.1663C25.1066 24.3578 24.9246 24.4975 24.711 24.5548C24.4974 24.6121 24.2699 24.5822 24.0784 24.4717L23.1734 23.9483C23.0133 23.8556 22.8269 23.8188 22.6436 23.8437C22.4603 23.8686 22.2904 23.9538 22.1609 24.0858C21.4191 24.843 20.4847 25.3833 19.4584 25.6483C19.2792 25.6944 19.1205 25.7987 19.0072 25.9449C18.8939 26.0911 18.8324 26.2709 18.8325 26.4558V27.5C18.8325 27.721 18.7447 27.933 18.5885 28.0893C18.4322 28.2455 18.2202 28.3333 17.9992 28.3333C17.7782 28.3333 17.5662 28.2455 17.4099 28.0893C17.2537 27.933 17.1659 27.721 17.1659 27.5V26.4567C17.166 26.2717 17.1045 26.092 16.9912 25.9458C16.8779 25.7996 16.7192 25.6952 16.54 25.6492C15.5137 25.3831 14.5795 24.8416 13.8384 24.0833C13.7088 23.9513 13.539 23.8661 13.3557 23.8412C13.1723 23.8163 12.986 23.8531 12.8259 23.9458L11.9225 24.4683C11.8277 24.5239 11.7229 24.5602 11.614 24.5751C11.5051 24.59 11.3943 24.5832 11.2881 24.5551C11.1818 24.527 11.0822 24.4782 10.9949 24.4114C10.9076 24.3446 10.8344 24.2613 10.7794 24.1661C10.7244 24.0709 10.6889 23.9658 10.6747 23.8568C10.6605 23.7479 10.6681 23.6372 10.6969 23.5311C10.7257 23.425 10.7751 23.3257 10.8425 23.2389C10.9098 23.152 10.9937 23.0793 11.0892 23.025L11.9925 22.5033C12.1525 22.411 12.2773 22.2682 12.3473 22.0973C12.4172 21.9264 12.4285 21.7371 12.3792 21.5592C12.097 20.5366 12.097 19.4567 12.3792 18.4342C12.4276 18.2566 12.4158 18.0679 12.3457 17.8977C12.2756 17.7275 12.1511 17.5853 11.9917 17.4933L11.0884 16.9717C10.8969 16.8612 10.7571 16.6791 10.6998 16.4655C10.6425 16.252 10.6724 16.0244 10.783 15.8329C10.8935 15.6414 11.0755 15.5016 11.2891 15.4444C11.5026 15.3871 11.7302 15.417 11.9217 15.5275L12.8267 16.0508C12.9864 16.1438 13.1724 16.181 13.3555 16.1567C13.5386 16.1324 13.7085 16.048 13.8384 15.9167C14.5801 15.1595 15.5146 14.6192 16.5409 14.3542C16.7206 14.308 16.8797 14.2031 16.9931 14.0563C17.1064 13.9094 17.1675 13.7289 17.1667 13.5433V12.5C17.1667 12.279 17.2545 12.067 17.4108 11.9107C17.5671 11.7545 17.779 11.6667 18 11.6667C18.2211 11.6667 18.433 11.7545 18.5893 11.9107C18.7456 12.067 18.8334 12.279 18.8334 12.5V13.5433C18.8333 13.7283 18.8947 13.908 19.008 14.0542C19.1213 14.2004 19.2801 14.3048 19.4592 14.3508C20.4859 14.6168 21.4204 15.1582 22.1617 15.9167C22.2913 16.0487 22.4611 16.1339 22.6444 16.1588C22.8277 16.1837 23.0141 16.1469 23.1742 16.0542L24.0775 15.5317C24.1723 15.4761 24.2772 15.4398 24.3861 15.4249C24.495 15.41 24.6057 15.4168 24.712 15.4449C24.8182 15.473 24.9179 15.5218 25.0052 15.5886C25.0925 15.6554 25.1657 15.7387 25.2207 15.8339C25.2756 15.9291 25.3112 16.0342 25.3254 16.1432C25.3395 16.2521 25.332 16.3628 25.3032 16.4689C25.2744 16.575 25.2249 16.6743 25.1576 16.7611C25.0903 16.848 25.0064 16.9207 24.9109 16.975L24.0075 17.4967C23.8484 17.5889 23.7243 17.7312 23.6545 17.9014C23.5847 18.0716 23.5732 18.2601 23.6217 18.4375V18.4367Z" fill="#FCFCFE"/>
</svg>
