<svg width="36" height="41" viewBox="0 0 36 41" fill="none" xmlns="http://www.w3.org/2000/svg">
<path d="M3.05843 8.40463L15.0584 1.65463C16.8849 0.627236 19.1151 0.627234 20.9416 1.65463L32.9416 8.40463C34.8308 9.46734 36 11.4664 36 13.6341V26.8659C36 29.0336 34.8308 31.0327 32.9416 32.0954L20.9416 38.8454C19.1151 39.8728 16.8849 39.8728 15.0584 38.8454L3.05843 32.0954C1.16917 31.0327 0 29.0336 0 26.8659V13.6341C0 11.4664 1.16917 9.46734 3.05843 8.40463Z" fill="#E8CE90"/>
<g clip-path="url(#clip0)">
<path d="M14.25 20.8333C13.5083 20.8333 12.7833 20.6134 12.1666 20.2013C11.5499 19.7893 11.0693 19.2036 10.7855 18.5184C10.5016 17.8332 10.4274 17.0792 10.5721 16.3517C10.7167 15.6243 11.0739 14.9561 11.5983 14.4317C12.1228 13.9072 12.791 13.5501 13.5184 13.4054C14.2458 13.2607 14.9998 13.335 15.6851 13.6188C16.3703 13.9026 16.956 14.3833 17.368 14.9999C17.7801 15.6166 18 16.3417 18 17.0833C17.9989 18.0776 17.6035 19.0307 16.9004 19.7338C16.1974 20.4368 15.2442 20.8322 14.25 20.8333ZM14.25 15C13.838 15 13.4352 15.1222 13.0926 15.3511C12.75 15.58 12.4829 15.9054 12.3253 16.2861C12.1676 16.6668 12.1263 17.0856 12.2067 17.4898C12.2871 17.8939 12.4855 18.2651 12.7769 18.5565C13.0682 18.8478 13.4394 19.0463 13.8436 19.1266C14.2477 19.207 14.6666 19.1658 15.0473 19.0081C15.4279 18.8504 15.7533 18.5834 15.9822 18.2408C16.2111 17.8982 16.3333 17.4954 16.3333 17.0833C16.3333 16.5308 16.1138 16.0009 15.7231 15.6102C15.3324 15.2195 14.8025 15 14.25 15ZM20.5 29.1667V28.75C20.5 27.0924 19.8415 25.5027 18.6694 24.3306C17.4973 23.1585 15.9076 22.5 14.25 22.5C12.5924 22.5 11.0027 23.1585 9.83058 24.3306C8.65848 25.5027 8 27.0924 8 28.75L8 29.1667C8 29.3877 8.0878 29.5996 8.24408 29.7559C8.40036 29.9122 8.61232 30 8.83333 30C9.05435 30 9.26631 29.9122 9.42259 29.7559C9.57887 29.5996 9.66667 29.3877 9.66667 29.1667V28.75C9.66667 27.5344 10.1496 26.3686 11.0091 25.5091C11.8686 24.6496 13.0344 24.1667 14.25 24.1667C15.4656 24.1667 16.6314 24.6496 17.4909 25.5091C18.3504 26.3686 18.8333 27.5344 18.8333 28.75V29.1667C18.8333 29.3877 18.9211 29.5996 19.0774 29.7559C19.2337 29.9122 19.4457 30 19.6667 30C19.8877 30 20.0996 29.9122 20.2559 29.7559C20.4122 29.5996 20.5 29.3877 20.5 29.1667ZM28 25C28 23.8739 27.674 22.7719 27.0614 21.827C26.4489 20.8821 25.5759 20.1347 24.5479 19.675C23.5199 19.2153 22.3808 19.063 21.2681 19.2364C20.1555 19.4099 19.1168 19.9017 18.2775 20.6525C18.1948 20.7252 18.1273 20.8135 18.079 20.9124C18.0306 21.0113 18.0023 21.1188 17.9957 21.2287C17.9892 21.3386 18.0044 21.4487 18.0406 21.5526C18.0768 21.6566 18.1333 21.7523 18.2067 21.8343C18.2801 21.9164 18.3691 21.983 18.4684 22.0305C18.5678 22.0779 18.6755 22.1052 18.7855 22.1108C18.8954 22.1163 19.0054 22.1 19.109 22.0629C19.2126 22.0257 19.3078 21.9684 19.3892 21.8942C19.9887 21.358 20.7306 21.0068 21.5253 20.8831C22.3201 20.7593 23.1336 20.8681 23.8678 21.1965C24.6021 21.5249 25.2255 22.0588 25.663 22.7337C26.1005 23.4086 26.3333 24.1957 26.3333 25C26.3333 25.221 26.4211 25.433 26.5774 25.5893C26.7337 25.7455 26.9457 25.8333 27.1667 25.8333C27.3877 25.8333 27.5996 25.7455 27.7559 25.5893C27.9122 25.433 28 25.221 28 25ZM22.5833 17.5C21.8417 17.5 21.1166 17.2801 20.4999 16.868C19.8833 16.456 19.4026 15.8703 19.1188 15.1851C18.835 14.4998 18.7607 13.7458 18.9054 13.0184C19.0501 12.291 19.4072 11.6228 19.9317 11.0984C20.4561 10.5739 21.1243 10.2168 21.8517 10.0721C22.5792 9.92736 23.3332 10.0016 24.0184 10.2855C24.7036 10.5693 25.2893 11.0499 25.7013 11.6666C26.1134 12.2833 26.3333 13.0083 26.3333 13.75C26.3322 14.7442 25.9368 15.6974 25.2338 16.4004C24.5307 17.1035 23.5776 17.4989 22.5833 17.5ZM22.5833 11.6667C22.1713 11.6667 21.7685 11.7889 21.4259 12.0178C21.0833 12.2467 20.8163 12.5721 20.6586 12.9527C20.5009 13.3334 20.4596 13.7523 20.54 14.1564C20.6204 14.5606 20.8188 14.9318 21.1102 15.2231C21.4016 15.5145 21.7728 15.7129 22.1769 15.7933C22.581 15.8737 22.9999 15.8324 23.3806 15.6748C23.7613 15.5171 24.0866 15.25 24.3156 14.9074C24.5445 14.5648 24.6667 14.162 24.6667 13.75C24.6667 13.1975 24.4472 12.6676 24.0565 12.2769C23.6658 11.8862 23.1359 11.6667 22.5833 11.6667Z" fill="white"/>
</g>
<defs>
<clipPath id="clip0">
<rect width="20" height="20" fill="white" transform="translate(8 10)"/>
</clipPath>
</defs>
</svg>
