<?xml version="1.0" encoding="UTF-8"?>
<svg width="32px" height="32px" viewBox="0 0 32 32" version="1.1" xmlns="http://www.w3.org/2000/svg" xmlns:xlink="http://www.w3.org/1999/xlink">
    <!-- Generator: Sketch 58 (84663) - https://sketch.com -->
    <title>Group</title>
    <desc>Created with Sketch.</desc>
    <g id="Page-1" stroke="none" stroke-width="1" fill="none" fill-rule="evenodd">
        <g id="Group">
            <path d="M16,32 C24.8366,32 32,24.8366 32,16 C32,7.16344 24.8366,0 16,0 C7.16344,0 0,7.16344 0,16 C0,24.8366 7.16344,32 16,32 Z" id="Path" fill="#F3F5FF"></path>
            <path d="M15.7351,8.25486 L19.9567,15.4089 C20.0687,15.5891 20.1528,15.5983 20.2903,15.5983 C20.4279,15.5983 20.6211,15.5291 20.655,15.3489 C21.1135,12.967 21.7142,11.8657 22.5676,11.9647 C22.9475,12.0088 23.0415,12.1476 22.9909,12.6778 L22.8696,13.7805 L22.7878,14.6162 C22.7417,15.1274 22.7124,15.5467 22.7,15.8743 C22.6488,17.2271 22.7117,18.0959 22.7,18.8827 C22.6488,22.3407 18.5192,24.066 16.2291,23.3369 C14.7023,22.8509 12.1897,20.1754 8.69112,15.3106 C8.56918,15.0599 8.607,14.8416 8.80459,14.6557 C9.07628,14.4002 9.39375,14.5862 9.51115,14.6709 L9.53802,14.6912 C9.59547,14.7362 10.3978,15.5448 11.9451,17.117 C12.1775,17.3488 12.3772,17.3932 12.5441,17.2502 C12.711,17.1072 12.711,16.891 12.5441,16.6016 L9.37734,11.9244 C9.24954,11.6818 9.24954,11.3358 9.53802,11.1281 C9.82649,10.9203 10.1775,11.0084 10.3949,11.2748 L13.9479,15.4962 C14.1236,15.679 14.3193,15.6987 14.5351,15.5552 C14.7342,15.4301 14.7744,15.2478 14.6554,15.0083 L11.5026,9.81127 C11.3217,9.48612 11.3955,9.09477 11.7326,8.89378 C12.0391,8.71107 12.3958,8.82041 12.6129,9.05846 L12.6736,9.13357 C12.811,9.32582 13.9961,10.9583 16.2291,14.0309 C16.4004,14.2749 16.5918,14.3334 16.8033,14.2064 C16.9843,14.0978 17.025,13.9265 16.9256,13.6925 L14.6411,8.7985 C14.5208,8.54398 14.6223,8.15877 14.941,8.00889 C15.2596,7.85901 15.574,8.00889 15.7351,8.25486 Z M8.05035,17.9014 C8.38096,17.9239 8.63072,18.2102 8.60821,18.5408 C8.55181,19.3692 8.78338,20.0443 9.31078,20.6069 C9.83013,21.161 10.5021,21.4152 11.375,21.3751 C11.7061,21.3598 11.9868,21.6158 12.002,21.9468 C12.0172,22.2779 11.7612,22.5586 11.4302,22.5738 C10.2167,22.6297 9.20225,22.2458 8.43528,21.4276 C7.67636,20.618 7.3323,19.6149 7.41098,18.4593 C7.43349,18.1287 7.71975,17.8789 8.05035,17.9014 Z M17.7147,6.70482 C18.9283,6.64896 19.9427,7.0328 20.7097,7.851 C21.4686,8.66062 21.8126,9.66367 21.734,10.8193 C21.7115,11.1499 21.4252,11.3997 21.0946,11.3772 C20.764,11.3547 20.5142,11.0684 20.5367,10.7378 C20.5931,9.9094 20.3616,9.23431 19.8342,8.67168 C19.3148,8.11763 18.6428,7.86337 17.7699,7.90355 C17.4389,7.91878 17.1582,7.66279 17.143,7.33177 C17.1277,7.00075 17.3837,6.72005 17.7147,6.70482 Z" id="Shape" fill="#F7931A"></path>
        </g>
    </g>
</svg>